<?xml version="1.0" standalone="no"?>
<!DOCTYPE svg PUBLIC "-//W3C//DTD SVG 20010904//EN"
 "http://www.w3.org/TR/2001/REC-SVG-20010904/DTD/svg10.dtd">
<svg version="1.0" xmlns="http://www.w3.org/2000/svg"
 width="1024.000000pt" height="1024.000000pt" viewBox="0 0 1024.000000 1024.000000"
 preserveAspectRatio="xMidYMid meet">
<metadata>
Created by potrace 1.11, written by Peter Selinger 2001-2013
</metadata>
<g transform="translate(0.000000,1024.000000) scale(0.100000,-0.100000)"
fill="#000000" stroke="none">
<path d="M4730 9608 c0 -5 -4 -7 -9 -3 -5 3 -12 1 -16 -4 -3 -5 -14 -8 -24 -6
-10 2 -24 -1 -31 -5 -8 -5 -22 -4 -32 1 -13 7 -18 6 -18 -3 0 -9 -3 -9 -10 2
-5 8 -10 10 -10 4 0 -12 -29 -12 -48 0 -8 5 -11 3 -10 -5 2 -8 -8 -13 -27 -14
-16 0 -36 -4 -44 -9 -8 -5 -16 -4 -22 5 -6 10 -9 11 -9 2 0 -7 -5 -13 -11 -13
-5 0 -7 6 -3 13 4 6 -2 4 -13 -6 -16 -14 -22 -15 -26 -5 -4 10 -6 10 -6 1 -1
-7 -8 -13 -17 -13 -9 0 -13 5 -9 13 4 6 0 4 -8 -6 -10 -12 -17 -15 -22 -7 -5
8 -10 8 -20 0 -7 -6 -17 -10 -21 -9 -23 4 -35 -2 -28 -13 5 -9 2 -9 -9 1 -12
9 -17 10 -17 2 0 -7 -5 -9 -10 -6 -6 4 -24 0 -40 -9 -17 -8 -28 -11 -25 -6 3
5 1 11 -5 15 -5 3 -10 0 -10 -7 0 -8 -14 -14 -37 -15 -21 -1 -39 -7 -41 -12
-3 -8 -10 -7 -24 0 -16 9 -19 8 -13 -2 6 -9 2 -11 -13 -7 -12 4 -22 2 -22 -4
0 -5 -4 -6 -10 -3 -5 3 -10 0 -10 -7 0 -10 -2 -10 -9 1 -6 10 -10 10 -13 1 -2
-7 -18 -13 -36 -13 -18 -1 -32 -5 -32 -10 0 -4 -4 -5 -10 -2 -5 3 -10 0 -10
-7 0 -9 -3 -9 -10 2 -5 8 -10 11 -10 5 0 -5 -11 -15 -25 -22 -15 -6 -22 -7
-19 -1 4 6 -3 5 -15 -1 -12 -7 -27 -9 -33 -5 -7 4 -8 3 -4 -4 4 -7 1 -12 -8
-12 -9 0 -16 -4 -16 -9 0 -4 -11 -7 -25 -6 -14 2 -25 -1 -25 -7 0 -6 -9 -8
-20 -5 -11 3 -20 1 -20 -5 0 -5 -4 -7 -9 -4 -5 4 -11 2 -13 -3 -1 -6 -19 -13
-38 -16 -19 -3 -37 -10 -38 -16 -2 -5 -8 -7 -13 -3 -5 3 -9 0 -9 -6 0 -6 -4
-8 -10 -5 -5 3 -10 1 -10 -5 0 -6 -5 -8 -10 -5 -6 4 -18 1 -26 -6 -8 -6 -17
-9 -20 -6 -4 3 -13 -1 -21 -9 -9 -8 -22 -13 -30 -10 -9 4 -11 2 -7 -6 5 -8 2
-9 -9 -5 -10 4 -29 -4 -49 -21 -18 -15 -28 -21 -24 -14 7 11 4 12 -13 3 -11
-7 -21 -16 -21 -22 0 -6 -4 -8 -9 -5 -14 9 -42 -5 -34 -17 4 -6 0 -8 -11 -4
-10 4 -19 1 -22 -8 -4 -8 -10 -12 -15 -9 -6 3 -16 0 -24 -6 -8 -7 -15 -9 -15
-4 0 4 -6 -1 -14 -11 -8 -11 -19 -16 -30 -12 -10 4 -16 1 -16 -8 0 -9 -10 -15
-25 -15 -17 0 -25 -6 -25 -17 0 -15 -2 -16 -10 -3 -8 13 -10 12 -10 -2 0 -18
-7 -21 -42 -21 -10 0 -15 -4 -12 -8 3 -5 -4 -9 -15 -9 -11 0 -24 -6 -28 -14
-4 -8 -15 -16 -23 -18 -8 -2 -21 -10 -28 -18 -10 -11 -12 -11 -6 -1 5 9 3 12
-4 7 -7 -4 -12 -15 -12 -24 0 -14 -2 -14 -9 -3 -7 11 -10 9 -15 -7 -4 -12 -13
-19 -19 -16 -7 2 -22 -4 -34 -15 -11 -11 -24 -17 -27 -14 -3 4 -6 0 -6 -7 0
-7 -3 -11 -6 -7 -4 3 -13 -1 -21 -9 -8 -8 -19 -11 -25 -8 -7 4 -8 2 -4 -4 4
-7 2 -12 -4 -12 -6 0 -8 -5 -4 -12 5 -8 0 -7 -11 2 -10 8 -16 11 -13 5 3 -5 0
-16 -8 -23 -8 -7 -14 -9 -14 -5 0 4 -7 -1 -15 -11 -8 -11 -15 -17 -15 -13 0 4
-10 -2 -22 -13 -12 -11 -28 -18 -35 -16 -8 3 -10 -1 -6 -11 4 -11 3 -14 -5 -9
-7 4 -15 0 -18 -9 -4 -9 -13 -14 -20 -11 -8 3 -14 -1 -14 -11 0 -9 -3 -14 -6
-11 -3 4 -14 -1 -23 -10 -49 -46 -79 -65 -65 -39 4 7 3 9 -2 4 -5 -5 -10 -13
-10 -18 -1 -5 -2 -14 -3 -20 0 -5 -5 -8 -10 -5 -5 3 -14 -1 -21 -9 -7 -8 -18
-15 -25 -15 -6 0 -17 -12 -24 -27 -10 -22 -14 -24 -22 -12 -7 12 -9 12 -9 -2
0 -9 -10 -24 -22 -35 -22 -19 -23 -19 -9 1 8 11 0 5 -16 -12 -17 -18 -33 -30
-37 -26 -3 3 -6 -1 -6 -11 0 -9 -4 -15 -8 -12 -5 3 -16 -8 -26 -25 -9 -16 -22
-27 -27 -24 -5 4 -9 1 -9 -5 0 -6 -5 -8 -13 -4 -7 5 -6 0 3 -11 9 -11 10 -16
3 -11 -8 4 -13 1 -13 -9 0 -9 -4 -13 -10 -10 -11 7 -62 -44 -55 -55 3 -4 -3
-7 -12 -6 -10 0 -18 -5 -18 -11 0 -7 -10 -20 -23 -28 -12 -9 -19 -21 -16 -27
4 -6 3 -9 -2 -5 -5 3 -18 -1 -29 -9 -10 -8 -16 -14 -12 -14 5 0 2 -6 -5 -14
-7 -8 -16 -12 -19 -10 -4 2 -9 -6 -12 -17 -4 -15 -11 -20 -22 -15 -9 3 -13 2
-10 -4 3 -6 1 -10 -6 -10 -7 0 -10 -3 -6 -6 8 -8 -25 -44 -35 -38 -4 3 -8 0
-8 -5 0 -6 -15 -27 -34 -46 -19 -20 -38 -44 -41 -55 -3 -11 -12 -19 -18 -17
-7 1 -11 -6 -11 -15 1 -10 -3 -16 -10 -15 -6 1 -10 -4 -8 -11 1 -8 -2 -11 -8
-7 -6 4 -15 -7 -21 -23 -6 -17 -17 -33 -25 -36 -9 -3 -12 -10 -9 -16 3 -5 0
-10 -8 -10 -14 0 -32 -27 -29 -42 1 -5 -4 -8 -11 -8 -14 0 -40 -29 -45 -51 -2
-8 -8 -18 -14 -24 -8 -7 -8 -6 -3 4 5 10 4 12 -4 7 -6 -4 -9 -11 -6 -16 3 -5
-6 -21 -20 -36 -14 -15 -25 -33 -25 -40 0 -8 -5 -14 -11 -14 -6 0 -8 -7 -5
-16 3 -8 2 -12 -4 -9 -6 3 -10 1 -10 -5 0 -6 -4 -8 -10 -5 -6 3 -7 -1 -4 -9 4
-11 0 -16 -11 -16 -9 0 -13 -4 -10 -10 3 -5 -3 -19 -14 -31 -11 -12 -18 -26
-15 -30 2 -4 -5 -13 -17 -19 -14 -8 -19 -18 -16 -31 3 -10 0 -17 -7 -16 -6 1
-10 -6 -10 -15 1 -10 -4 -14 -12 -11 -9 3 -12 0 -9 -9 3 -7 -3 -23 -13 -33
-10 -11 -25 -35 -32 -52 -8 -18 -19 -33 -23 -33 -5 0 -5 -4 -2 -10 3 -5 1 -10
-5 -10 -6 0 -8 -4 -5 -10 3 -5 1 -10 -6 -10 -6 0 -9 -8 -6 -20 3 -11 0 -18 -7
-17 -6 1 -10 -6 -10 -15 1 -11 -5 -18 -15 -18 -14 0 -14 -2 -1 -10 10 -6 11
-10 3 -10 -7 0 -13 -7 -13 -16 0 -9 -5 -12 -12 -8 -7 5 -8 3 -4 -5 5 -7 0 -19
-10 -27 -11 -9 -13 -12 -6 -9 11 6 11 3 0 -16 -7 -13 -16 -26 -19 -29 -4 -3
-10 -16 -14 -30 -4 -14 -15 -31 -24 -38 -9 -8 -10 -11 -3 -7 7 3 -1 -17 -18
-45 -17 -28 -25 -48 -18 -44 7 4 5 -2 -5 -13 -9 -11 -15 -22 -12 -25 3 -3 -1
-18 -9 -33 -8 -16 -12 -33 -9 -38 4 -6 0 -8 -10 -4 -11 4 -14 2 -10 -9 3 -8 0
-21 -7 -29 -6 -8 -9 -18 -6 -24 4 -5 -1 -16 -9 -25 -9 -9 -15 -24 -13 -33 2
-11 -2 -17 -10 -15 -10 2 -10 -2 -1 -19 6 -12 7 -19 1 -15 -5 3 -16 -2 -23
-11 -10 -12 -10 -14 -1 -9 6 4 12 3 12 -3 0 -5 -5 -13 -11 -16 -5 -4 -8 -12
-6 -18 2 -7 -3 -18 -12 -25 -12 -10 -13 -12 -1 -6 13 7 13 5 1 -9 -7 -9 -10
-17 -7 -17 4 0 1 -10 -6 -22 -13 -23 -15 -29 -17 -61 0 -10 -5 -15 -11 -12 -6
3 -7 -1 -4 -9 3 -8 -1 -28 -9 -44 -9 -19 -11 -35 -5 -45 5 -10 4 -18 -3 -23
-8 -5 -9 -3 -4 6 5 8 4 11 -3 7 -5 -4 -9 -15 -7 -25 1 -9 -3 -23 -9 -31 -9
-12 -8 -13 4 -7 8 4 4 -2 -9 -13 -21 -19 -20 -26 3 -22 5 1 4 -5 -3 -13 -7 -9
-11 -22 -8 -29 3 -8 1 -20 -5 -28 -7 -11 -8 -9 -3 6 3 11 3 16 -2 11 -4 -4 -9
-24 -10 -44 -1 -20 -3 -45 -3 -55 -1 -9 -5 -15 -9 -13 -4 3 -7 -11 -6 -30 1
-18 -1 -34 -5 -34 -4 0 -5 -11 -2 -25 2 -15 0 -25 -7 -25 -6 0 -11 -5 -11 -11
0 -5 6 -7 13 -3 9 6 9 5 0 -7 -10 -12 -10 -18 0 -29 9 -10 9 -11 0 -6 -7 4
-13 4 -14 -1 0 -4 -2 -19 -5 -32 -2 -13 -5 -43 -7 -67 -1 -23 -6 -46 -10 -50
-4 -4 -2 -13 4 -20 7 -8 6 -14 -2 -20 -8 -5 -9 -3 -4 6 5 9 4 11 -4 6 -6 -4
-8 -12 -5 -18 9 -14 11 -68 3 -68 -3 0 -4 -18 -3 -40 1 -22 -2 -40 -6 -40 -4
0 -7 -7 -7 -15 0 -8 5 -15 11 -15 5 0 1 -7 -10 -15 -10 -8 -14 -15 -8 -15 14
0 14 -30 0 -30 -7 0 -7 -3 -1 -8 6 -4 10 -29 10 -57 0 -27 -4 -53 -10 -57 -7
-5 -7 -8 0 -8 6 0 10 -25 10 -55 0 -30 -4 -55 -10 -55 -7 0 -7 -3 0 -8 13 -9
13 -112 0 -112 -7 0 -7 -3 0 -8 6 -4 10 -29 10 -57 0 -27 -4 -53 -10 -57 -7
-5 -7 -8 0 -8 11 0 11 -72 0 -89 -3 -6 1 -11 9 -11 9 0 16 -5 16 -11 0 -5 -4
-8 -9 -5 -5 3 -11 -7 -13 -24 -2 -16 -1 -27 3 -25 4 3 9 -2 12 -10 4 -10 1
-12 -11 -8 -13 5 -14 3 -5 -7 6 -7 9 -19 6 -28 -4 -10 -2 -13 5 -8 7 4 10 -3
8 -21 -2 -16 1 -34 6 -40 7 -9 7 -13 0 -13 -11 0 -4 -38 11 -58 7 -9 6 -11 -8
-6 -15 6 -16 4 -7 -13 6 -11 9 -23 5 -26 -3 -4 0 -13 7 -22 7 -8 9 -15 5 -15
-4 0 -1 -8 6 -17 8 -10 9 -14 2 -10 -8 5 -11 0 -10 -13 1 -11 6 -20 12 -20 5
0 3 -5 -5 -10 -11 -7 -11 -10 -2 -10 7 0 11 -4 8 -9 -3 -5 1 -28 9 -50 8 -23
11 -40 6 -37 -11 7 -8 -35 4 -54 5 -8 10 -21 10 -30 1 -8 5 -26 9 -39 5 -14 4
-21 -1 -18 -5 3 -3 -16 6 -43 8 -27 19 -46 24 -43 5 3 4 -5 -3 -17 -7 -13 -8
-20 -2 -16 6 4 11 -2 11 -11 1 -53 9 -104 16 -110 4 -5 5 -2 0 6 -5 10 -4 12
4 7 6 -4 9 -12 6 -17 -4 -5 -3 -15 2 -21 4 -7 9 -22 11 -33 8 -45 10 -50 19
-48 6 1 8 -9 5 -22 -3 -16 0 -25 9 -25 10 0 10 -3 2 -11 -9 -9 -8 -15 2 -26 8
-7 12 -20 9 -28 -4 -8 -2 -15 3 -15 5 0 10 -14 11 -32 2 -18 7 -35 12 -38 6
-3 11 -18 12 -33 1 -15 6 -27 10 -27 4 0 8 -7 8 -16 0 -9 5 -12 13 -8 7 5 6 0
-3 -11 -9 -11 -10 -16 -3 -11 9 5 13 0 13 -13 0 -12 5 -21 11 -21 8 0 7 -6 -2
-17 -12 -14 -12 -16 0 -8 11 6 13 2 9 -19 -5 -23 -3 -25 11 -14 9 7 13 8 8 3
-4 -4 0 -19 9 -33 9 -13 11 -21 5 -18 -6 4 -11 2 -11 -3 0 -6 4 -11 8 -11 4 0
8 -9 9 -20 1 -11 12 -34 24 -52 13 -17 18 -28 11 -24 -8 5 -10 2 -6 -8 3 -9
11 -16 17 -16 6 0 8 -3 4 -6 -3 -4 1 -13 9 -21 8 -8 12 -19 9 -24 -4 -5 -2 -9
4 -9 10 0 27 -38 23 -52 -1 -5 3 -8 9 -8 5 0 7 -4 4 -10 -3 -5 -1 -10 4 -10 6
0 11 -9 11 -20 0 -11 5 -20 10 -20 6 0 10 -7 10 -15 0 -8 5 -15 11 -15 5 0 8
-3 6 -7 -8 -14 12 -54 24 -47 8 4 9 -1 4 -16 -5 -17 -4 -21 6 -15 9 6 11 3 6
-8 -4 -10 -1 -17 5 -17 6 0 9 -3 5 -6 -3 -4 1 -13 9 -21 8 -9 13 -22 10 -30
-3 -8 -2 -11 3 -8 12 7 42 -35 35 -47 -3 -4 0 -8 5 -8 6 0 11 -6 11 -14 0 -8
7 -17 16 -20 9 -4 14 -13 10 -21 -3 -8 -1 -15 4 -15 8 0 35 -43 43 -67 1 -5 5
-7 9 -6 4 2 12 -7 19 -18 9 -17 8 -20 -3 -14 -7 3 -3 -2 8 -12 12 -11 29 -35
39 -54 10 -19 26 -41 36 -50 10 -9 16 -19 12 -23 -3 -3 -1 -6 6 -6 7 0 9 -5 6
-10 -3 -6 1 -10 10 -10 9 0 13 -4 10 -10 -3 -5 -1 -10 4 -10 6 0 11 -7 11 -15
0 -9 7 -18 15 -21 8 -4 12 -10 9 -15 -3 -5 0 -9 5 -9 6 0 11 -7 11 -16 0 -8 4
-13 9 -9 5 3 12 -4 16 -15 3 -11 11 -20 17 -20 5 0 7 -7 4 -16 -3 -8 -2 -13 3
-10 5 3 14 -1 21 -9 7 -8 9 -15 6 -15 -4 0 -1 -6 6 -14 7 -8 16 -12 20 -9 5 2
8 -3 8 -11 0 -9 5 -16 11 -16 5 0 7 -5 4 -10 -5 -9 7 -14 27 -11 4 0 5 -8 3
-19 -4 -18 6 -25 29 -21 5 1 6 -6 2 -15 -4 -11 0 -18 14 -21 11 -3 17 -9 14
-14 -3 -5 0 -9 6 -9 6 0 8 -5 4 -12 -4 -7 -3 -8 4 -4 6 3 16 -3 22 -14 6 -11
16 -17 22 -14 7 4 8 3 4 -5 -4 -6 0 -14 8 -17 9 -3 16 -12 16 -20 0 -8 4 -13
9 -12 5 2 8 -1 7 -6 0 -5 9 -12 22 -17 12 -5 22 -16 22 -26 0 -15 2 -16 10 -3
8 13 10 12 10 -2 0 -10 9 -23 20 -30 11 -7 20 -19 20 -26 0 -7 5 -10 11 -7 6
4 13 -2 16 -13 3 -14 10 -19 21 -15 10 4 13 2 8 -5 -3 -6 3 -16 14 -22 11 -6
18 -15 15 -21 -4 -5 0 -9 7 -9 7 0 28 -18 47 -40 18 -22 38 -37 44 -33 6 3 7
1 3 -5 -4 -7 -2 -12 3 -12 6 0 11 -8 12 -17 0 -10 3 -13 6 -6 3 10 7 10 18 0
7 -7 11 -15 8 -19 -2 -5 3 -8 11 -8 9 0 16 -4 16 -10 0 -5 6 -10 14 -10 8 0
17 -7 20 -16 4 -9 9 -14 13 -10 3 3 11 -4 17 -15 6 -12 15 -22 21 -23 14 -2
52 -40 48 -48 -2 -4 3 -5 11 -2 9 3 19 -3 26 -16 6 -11 15 -18 21 -15 5 4 9 1
9 -4 0 -6 7 -11 16 -11 8 0 12 -4 9 -10 -3 -5 3 -10 14 -10 13 0 21 -7 21 -17
0 -15 2 -16 10 -3 8 13 10 12 10 -2 0 -10 7 -18 15 -18 8 0 19 -9 25 -20 6
-11 20 -20 31 -20 13 0 18 -4 13 -12 -5 -7 0 -9 14 -6 15 4 19 2 15 -8 -3 -9
2 -14 15 -14 12 0 24 -5 28 -12 5 -7 3 -8 -6 -3 -9 5 -11 4 -6 -4 4 -6 12 -8
18 -5 6 4 14 0 19 -7 4 -8 14 -14 21 -14 7 -1 12 -6 11 -12 -1 -6 5 -10 15 -9
9 0 16 -5 14 -12 -1 -8 2 -11 7 -8 5 4 12 2 16 -4 3 -5 15 -10 27 -10 13 0 18
-5 15 -14 -4 -10 -1 -13 9 -9 7 3 14 0 14 -7 0 -6 4 -9 9 -5 5 3 16 -2 24 -10
9 -8 19 -15 23 -15 4 0 13 -8 21 -17 9 -11 12 -12 7 -3 -4 8 3 5 16 -8 12 -13
29 -21 37 -18 8 3 11 1 8 -4 -3 -6 3 -10 15 -10 12 0 18 -5 15 -10 -5 -9 15
-15 38 -11 4 0 7 -4 7 -10 0 -6 7 -9 15 -5 8 3 20 -3 27 -12 7 -9 22 -18 33
-20 11 -2 26 -11 32 -20 7 -9 13 -12 13 -8 0 5 7 3 15 -4 8 -6 19 -9 24 -6 5
4 16 -2 23 -11 7 -10 20 -19 28 -21 8 -2 18 -8 21 -14 4 -6 9 -5 12 3 4 10 6
10 6 2 1 -7 8 -13 16 -13 9 0 18 -6 21 -14 3 -8 13 -12 25 -9 11 3 19 0 19 -6
0 -7 4 -9 10 -6 5 3 10 2 10 -4 0 -5 11 -8 25 -7 13 2 22 -1 19 -5 -5 -8 10
-13 29 -10 4 0 7 -3 7 -9 0 -5 11 -10 25 -10 14 0 25 -4 25 -9 0 -10 43 -27
78 -30 7 0 11 -5 8 -10 -3 -5 0 -9 7 -8 34 1 58 -4 53 -11 -3 -5 1 -9 9 -9 8
0 12 4 10 8 -3 4 6 2 20 -4 14 -7 25 -16 25 -22 0 -5 5 -3 10 5 6 10 10 11 10
3 0 -7 9 -13 21 -13 11 0 18 -4 15 -8 -2 -4 3 -8 12 -9 51 -2 82 -8 82 -15 0
-4 3 -7 8 -6 4 1 16 -3 28 -9 12 -7 26 -8 34 -3 10 6 22 2 39 -13 13 -12 20
-15 16 -7 -5 9 1 7 15 -5 13 -11 20 -14 16 -7 -4 6 -2 12 3 12 6 0 11 -6 11
-12 0 -9 4 -8 10 2 7 11 10 11 10 2 0 -7 5 -10 10 -7 6 3 10 2 10 -4 0 -5 13
-7 29 -5 16 3 32 0 35 -5 4 -6 13 -8 21 -4 8 3 15 0 15 -7 0 -6 4 -9 9 -5 5 3
12 2 15 -3 2 -4 23 -8 45 -7 23 1 41 -2 41 -5 0 -4 12 -7 28 -8 67 -4 87 -9
84 -23 -1 -9 3 -8 12 4 9 12 15 14 18 6 2 -7 12 -13 21 -15 9 -1 15 1 13 5 -3
4 4 7 14 7 10 0 16 -4 14 -8 -3 -4 5 -7 18 -7 13 1 36 -4 52 -10 27 -11 28
-10 15 5 -13 16 -12 16 8 5 12 -6 35 -11 50 -10 37 2 55 -3 70 -21 11 -13 12
-13 7 3 -5 13 -2 16 10 11 9 -3 16 -10 16 -16 0 -5 6 -5 16 0 9 5 26 7 37 4
15 -4 18 -2 12 9 -7 11 -6 12 6 3 8 -6 22 -14 33 -18 14 -5 17 -3 12 10 -5 14
-4 15 9 4 8 -7 28 -10 45 -8 17 3 30 0 30 -6 0 -5 7 -1 16 10 8 10 13 14 10 8
-3 -7 1 -14 9 -18 8 -3 15 0 15 6 0 6 3 8 7 5 3 -4 13 -1 21 6 10 7 13 8 9 1
-4 -7 2 -14 14 -17 16 -4 19 -2 15 10 -6 13 -4 14 10 3 13 -11 19 -11 36 -1
11 7 17 8 14 2 -4 -5 -2 -12 4 -16 5 -3 10 -3 10 2 0 10 243 8 259 -1 6 -4 11
-4 11 1 0 4 16 8 35 9 18 0 32 -3 29 -7 -2 -4 9 -4 25 1 16 4 32 6 35 2 3 -3
6 0 6 6 0 6 6 9 14 6 8 -3 17 0 21 6 5 8 10 8 20 0 10 -8 15 -8 20 0 5 8 10 8
20 0 9 -7 15 -8 19 -1 5 7 15 7 32 1 17 -7 23 -7 19 0 -3 6 1 10 9 10 9 0 16
-6 16 -12 0 -8 5 -6 10 4 7 10 17 14 32 10 12 -3 19 -1 15 4 -3 5 3 10 13 10
10 0 16 -4 14 -8 -3 -4 0 -8 5 -8 6 0 11 4 11 10 0 5 6 7 14 4 8 -3 17 0 21 6
5 8 11 8 21 -1 11 -9 14 -9 14 1 0 8 3 10 7 7 3 -4 13 -1 21 6 13 9 14 9 8 0
-4 -7 -2 -13 3 -13 6 0 11 5 11 11 0 8 6 7 17 -2 11 -10 14 -10 9 -1 -7 12 -1
13 71 17 12 0 25 4 29 7 3 4 12 4 20 1 8 -3 14 0 14 7 0 7 6 10 14 7 8 -3 22
0 32 7 9 7 30 11 46 10 21 -3 27 0 22 9 -6 9 -3 8 8 -1 11 -9 18 -10 23 -2 3
6 11 8 16 5 5 -4 9 -1 9 6 0 8 5 7 17 -2 14 -12 16 -12 11 1 -4 10 1 15 16 16
34 2 67 12 84 26 13 11 15 11 7 -2 -6 -12 -5 -13 6 -2 7 6 21 12 30 12 10 0
20 6 22 13 4 9 8 8 16 -3 10 -13 13 -13 25 2 7 10 15 15 19 12 5 -5 14 -2 66
25 19 10 22 10 15 -1 -6 -11 -5 -11 8 0 9 7 22 11 29 10 8 -2 13 2 12 9 -2 7
4 10 12 7 9 -4 15 0 15 7 0 11 3 11 10 -1 7 -12 10 -12 10 -1 0 8 6 11 16 7 8
-3 12 -2 9 4 -3 6 3 10 14 10 12 0 21 5 21 10 0 6 5 10 11 10 5 0 7 -6 3 -12
-4 -7 5 -2 21 12 16 14 25 19 21 13 -5 -9 -2 -11 8 -7 9 3 16 10 16 16 0 5 4
7 9 3 5 -3 13 0 17 6 4 8 9 7 15 -2 7 -11 9 -10 9 4 0 10 4 16 9 12 12 -7 62
15 79 35 8 8 11 9 7 3 -4 -8 -1 -11 9 -7 8 3 17 12 20 21 5 12 9 13 20 3 12
-9 17 -7 26 10 6 11 15 18 21 15 5 -4 9 -2 9 4 0 6 7 7 17 4 11 -4 14 -3 9 5
-4 7 -2 13 3 13 6 1 16 2 21 3 6 0 15 8 20 16 7 11 10 11 10 2 0 -7 5 -10 10
-7 6 4 8 11 5 16 -3 5 0 6 8 3 8 -3 19 2 26 10 7 8 18 13 25 10 7 -3 24 6 38
19 13 13 30 21 36 19 7 -2 12 1 12 6 0 9 19 17 43 20 5 0 15 9 24 19 9 11 12
12 8 3 -5 -12 -4 -12 7 1 7 8 21 18 31 22 9 3 17 11 17 17 0 6 5 8 10 5 6 -3
10 -1 10 5 0 6 5 8 10 5 6 -3 10 -1 10 4 0 6 7 11 15 11 9 0 18 7 21 15 4 8
12 15 20 15 8 0 14 5 14 11 0 5 5 7 10 4 6 -3 10 -1 10 6 0 7 3 9 7 6 3 -4 12
1 20 11 10 11 12 12 8 2 -4 -10 -2 -9 8 3 8 9 19 17 25 17 6 0 16 9 22 21 7
11 17 19 23 16 14 -5 39 18 29 27 -3 4 2 4 12 0 14 -5 17 -4 12 4 -6 11 5 17
27 13 4 0 7 6 7 15 0 8 5 12 10 9 6 -3 13 1 16 9 3 9 10 13 15 10 5 -3 9 -1 9
5 0 6 11 13 25 17 14 3 25 12 25 19 0 8 5 17 12 21 7 4 8 3 4 -4 -4 -7 -2 -12
3 -12 6 0 11 5 11 11 0 11 11 23 44 49 16 12 18 12 11 1 -6 -10 -4 -12 4 -7 7
5 10 14 7 22 -3 8 0 11 10 7 7 -3 14 0 14 7 0 6 5 8 12 4 7 -4 8 -3 4 5 -4 7
2 15 16 20 13 6 19 10 13 10 -5 1 5 10 23 21 18 11 30 25 27 30 -3 6 1 7 9 4
10 -4 16 -1 16 10 0 10 5 13 17 9 11 -4 14 -3 9 5 -4 7 -1 12 8 12 8 0 18 4
21 10 3 6 -1 7 -12 4 -11 -3 -9 0 5 8 12 8 19 17 16 21 -4 4 -2 7 4 7 14 0 52
36 46 43 -3 3 7 7 21 11 14 4 25 13 25 21 0 8 7 15 16 15 10 0 14 6 10 15 -3
9 0 15 9 15 8 0 15 5 15 10 0 6 11 15 24 21 14 7 22 17 20 24 -3 7 6 15 21 19
14 4 23 11 20 16 -3 6 -1 10 5 10 6 0 8 5 5 10 -3 5 1 10 9 10 9 0 16 5 16 11
0 5 5 7 11 4 6 -4 9 0 7 11 -2 14 2 18 16 16 11 -2 15 1 11 7 -3 6 -1 11 5 11
6 0 8 5 5 10 -3 5 0 10 8 10 8 0 18 7 21 16 3 8 11 12 17 8 8 -4 9 -3 5 4 -4
6 7 23 23 38 17 15 28 31 25 35 -3 5 0 9 6 9 7 0 9 7 6 16 -6 15 -4 15 11 3
15 -13 16 -12 11 8 -5 17 -2 20 11 16 9 -4 13 -3 9 1 -4 5 3 18 15 31 37 37
68 79 78 103 4 12 14 22 20 22 7 0 10 3 6 6 -3 3 4 17 16 30 37 39 48 54 40
54 -4 0 2 7 13 16 10 8 12 12 4 8 -13 -7 -13 -5 -1 9 7 9 17 14 22 11 5 -3 9
2 9 11 0 10 5 13 13 9 9 -6 9 -5 -1 8 -10 12 -10 17 1 27 8 6 16 9 18 6 3 -2
5 5 6 16 2 27 22 51 36 42 6 -4 8 0 4 10 -3 9 0 18 9 21 8 3 14 13 14 22 0 21
35 65 45 56 5 -4 5 -2 2 5 -9 14 2 45 13 38 7 -5 23 31 21 48 -1 4 4 7 9 7 9
0 24 28 30 55 1 6 8 14 16 18 8 4 14 17 14 27 0 10 5 22 11 25 6 4 8 14 5 22
-4 10 -2 13 8 10 11 -4 13 -1 9 10 -5 12 -3 14 7 8 9 -5 11 -4 6 3 -6 10 18
70 33 82 9 7 35 63 36 75 0 6 6 15 14 21 8 6 12 20 9 32 -3 12 -3 21 1 20 18
-2 22 4 11 17 -11 13 -10 14 5 9 12 -5 16 -4 12 3 -7 11 14 63 26 63 4 0 7 5
7 11 0 5 -5 7 -12 3 -7 -4 -8 -3 -4 4 4 7 15 12 24 13 11 0 13 2 4 6 -10 4
-10 8 -1 19 6 8 8 14 4 14 -5 0 0 10 11 22 10 12 14 18 7 15 -6 -4 -3 11 8 32
10 22 19 45 19 51 0 6 6 8 13 4 8 -5 8 -2 -2 9 -9 12 -10 17 -2 17 7 0 10 4 6
9 -3 6 3 14 12 20 14 8 15 10 3 11 -11 0 -12 2 -3 8 7 5 14 20 15 35 1 15 6
27 11 27 4 0 5 5 2 10 -3 6 -2 10 3 10 5 0 8 11 7 25 -2 14 1 23 6 19 5 -3 9
6 9 20 0 37 1 40 12 53 5 7 7 16 4 22 -3 5 -1 11 5 13 6 2 11 16 11 31 1 15 4
27 9 27 5 0 5 7 2 17 -4 11 -3 14 5 9 9 -5 9 -1 2 18 -7 18 -6 28 3 33 12 8
18 31 18 66 0 9 4 17 10 17 5 0 9 5 9 11 0 5 -6 7 -12 3 -10 -6 -10 -5 -1 8 7
8 10 18 6 21 -3 4 0 7 8 7 11 0 11 2 -1 10 -13 9 -13 10 0 10 13 0 13 1 0 10
-12 8 -12 10 -1 10 8 0 11 7 8 20 -3 12 -1 18 5 14 5 -3 9 2 8 12 -4 31 0 45
8 40 10 -6 9 25 -2 42 -4 6 -3 12 3 12 5 0 8 9 6 20 -2 11 1 20 7 20 7 0 6 6
-2 15 -10 12 -10 15 0 15 7 0 10 7 6 15 -3 8 0 15 7 15 8 0 6 4 -3 10 -9 6
-11 10 -3 10 7 0 10 7 6 16 -3 9 0 20 8 25 11 6 11 9 1 9 -10 0 -10 5 -1 21 7
15 8 19 0 15 -7 -5 -9 -1 -5 8 3 9 11 16 17 16 8 0 7 4 -1 12 -7 7 -8 17 -1
30 8 14 6 18 -8 19 -16 0 -16 1 2 9 11 5 14 9 7 9 -10 1 -9 7 2 29 10 20 11
33 4 46 -7 13 -7 17 0 12 6 -4 10 6 8 26 -1 18 1 45 5 60 6 22 4 26 -9 20 -15
-5 -15 -4 -3 11 7 9 11 17 7 17 -3 0 -1 12 4 26 7 16 7 23 0 19 -13 -8 -13 1
0 26 6 11 7 19 3 18 -20 -3 -27 2 -14 10 13 8 13 12 0 27 -8 10 -9 15 -2 11 8
-5 11 2 11 23 -1 16 -6 30 -12 30 -6 0 -5 4 3 9 7 5 11 13 7 19 -3 6 0 13 6
15 10 4 10 6 1 6 -7 1 -10 8 -7 16 4 8 0 23 -7 32 -8 9 -9 14 -2 10 7 -5 11 4
11 27 0 19 3 39 7 45 4 7 -1 8 -12 4 -16 -6 -16 -5 -4 10 7 9 11 17 7 17 -3 0
-1 12 4 26 7 16 7 23 0 19 -13 -8 -13 1 0 25 7 13 7 21 -2 26 -7 5 -8 3 -3 -6
5 -9 4 -11 -4 -6 -8 6 -9 12 -2 20 7 9 7 17 -2 26 -8 8 -8 11 -1 7 8 -5 12 8
11 43 0 33 -4 47 -11 43 -6 -4 -5 0 2 9 8 10 9 19 3 22 -5 4 -8 15 -6 26 2 11
-4 24 -13 30 -16 9 -16 9 0 10 10 0 15 6 12 13 -2 7 -6 33 -8 57 -2 25 -5 45
-6 45 -7 0 -6 36 1 41 5 3 2 12 -7 21 -12 13 -13 17 -2 24 10 7 10 9 -2 9 -12
0 -12 2 -2 9 11 7 11 11 -2 24 -12 11 -13 16 -3 20 9 3 9 8 1 18 -5 8 -10 23
-10 34 1 11 -3 23 -9 27 -6 5 -4 8 5 8 12 0 13 2 1 9 -7 5 -15 21 -17 37 -3
27 -10 62 -14 74 -1 3 -2 9 -1 14 1 4 -4 15 -11 24 -10 12 -10 14 0 8 15 -9
16 6 0 22 -9 9 -9 12 1 12 9 0 9 3 -2 14 -8 8 -13 28 -12 44 1 23 -2 29 -13
25 -12 -5 -12 -2 -2 17 10 18 9 21 -1 15 -9 -6 -11 -2 -7 13 4 12 1 22 -4 22
-6 0 -4 8 3 17 10 11 10 14 2 9 -9 -5 -13 1 -13 23 0 16 -4 32 -10 36 -5 3 -6
13 -3 22 5 12 3 14 -7 8 -10 -6 -12 -4 -7 8 4 10 1 17 -6 17 -8 0 -6 4 3 10
11 7 11 10 2 10 -7 0 -10 5 -7 10 3 6 -2 10 -12 10 -14 0 -15 2 -4 9 9 6 10
11 3 15 -6 4 -8 14 -5 23 5 12 3 14 -7 8 -10 -6 -12 -4 -7 8 3 9 0 23 -8 31
-11 11 -12 16 -2 19 9 4 9 6 0 6 -7 1 -13 9 -13 19 0 10 -6 24 -12 31 -11 11
-10 12 2 6 13 -7 13 -6 -1 11 -8 10 -14 29 -13 41 0 12 -2 20 -6 18 -10 -6
-22 24 -15 35 3 4 -2 11 -11 14 -8 3 -12 11 -9 17 4 6 -3 22 -16 35 -21 23
-22 25 -4 19 20 -7 20 -6 1 9 -11 9 -16 16 -10 16 5 0 2 5 -7 10 -10 6 -15 20
-14 35 2 17 -2 25 -12 25 -10 0 -14 6 -10 20 3 11 1 20 -5 20 -5 0 -6 5 -3 10
3 6 1 10 -4 10 -6 0 -11 9 -11 20 0 11 -4 20 -8 20 -5 0 -14 16 -22 35 -8 19
-19 35 -24 35 -6 0 -5 4 2 9 11 7 10 9 -3 15 -9 3 -14 10 -11 15 4 5 -1 16 -9
24 -11 12 -12 17 -2 20 7 3 4 6 -6 6 -10 1 -15 6 -12 11 3 6 1 10 -5 10 -6 0
-8 5 -5 10 3 6 2 10 -3 10 -5 0 -12 14 -16 31 -4 20 -10 28 -17 23 -9 -5 -10
0 -7 14 4 15 2 22 -7 22 -8 0 -17 5 -21 12 -4 7 -3 8 4 4 7 -4 12 -2 12 3 0 6
-7 11 -16 11 -8 0 -13 4 -10 9 3 5 -3 20 -14 34 -11 14 -20 30 -20 36 0 6 -5
11 -11 11 -5 0 -8 4 -4 9 3 6 -3 14 -12 20 -10 6 -14 11 -10 11 5 0 1 7 -7 16
-9 8 -14 20 -11 25 4 5 -1 9 -10 9 -9 0 -13 5 -10 10 3 6 0 13 -9 16 -8 3 -13
14 -11 24 2 10 -4 25 -13 32 -16 12 -16 11 -2 -7 14 -20 14 -20 -7 -2 -12 11
-19 25 -16 33 3 8 0 14 -7 14 -6 0 -8 5 -4 12 4 7 3 8 -5 4 -7 -5 -17 6 -26
28 -9 20 -22 36 -31 36 -8 0 -13 4 -9 9 3 5 -2 17 -11 25 -11 12 -12 16 -2 16
10 0 10 3 -2 9 -8 6 -18 7 -24 4 -5 -3 -6 -1 -3 4 4 6 0 13 -8 17 -8 3 -15 12
-15 21 0 8 -4 15 -10 15 -5 0 -10 7 -10 15 0 8 -9 19 -20 25 -11 6 -20 17 -20
25 0 8 -4 15 -10 15 -5 0 -10 4 -10 10 0 17 -33 49 -43 43 -6 -3 -7 -1 -3 5 3
5 1 12 -4 14 -6 2 -12 13 -13 26 -1 17 -6 21 -20 16 -13 -4 -17 -2 -12 5 4 7
-3 21 -16 32 -12 10 -18 19 -13 19 5 0 -5 8 -23 16 -18 9 -32 19 -31 23 2 19
-3 31 -14 28 -7 -1 -12 4 -11 11 2 7 -7 12 -20 12 -18 0 -19 2 -7 10 13 9 13
10 0 11 -8 1 -18 1 -22 0 -4 0 -5 8 -3 18 2 10 -2 18 -8 17 -7 0 -13 4 -15 9
-2 6 -12 13 -23 17 -10 4 -19 14 -19 23 0 8 -6 15 -13 15 -7 0 -21 11 -31 25
-10 13 -24 22 -30 18 -6 -4 -5 1 3 10 12 15 12 17 -3 11 -11 -4 -16 -1 -16 11
0 9 -5 13 -10 10 -6 -3 -13 1 -16 9 -3 9 -11 13 -17 9 -5 -3 -7 -1 -3 5 3 6
-4 18 -16 26 -12 9 -18 16 -13 17 6 0 0 4 -12 9 -13 5 -23 16 -23 24 0 7 -10
16 -21 19 -15 4 -20 11 -15 23 6 15 4 15 -11 3 -11 -9 -14 -10 -9 -1 4 7 0 15
-11 19 -10 3 -25 12 -33 20 -8 8 -24 21 -35 29 -11 9 -13 12 -5 8 10 -5 12 -4
5 4 -5 6 -17 12 -25 14 -19 4 -40 24 -40 38 0 6 -4 9 -9 5 -5 -3 -21 6 -34 19
-14 14 -27 22 -30 20 -3 -3 -8 3 -11 13 -3 10 -20 24 -38 32 -37 16 -60 36
-52 44 3 3 -3 4 -13 4 -11 -1 -17 4 -15 12 3 12 1 12 -14 0 -10 -8 -15 -9 -12
-4 3 6 0 16 -8 23 -8 7 -14 10 -14 7 0 -6 -17 7 -55 42 -16 16 -25 19 -28 10
-3 -7 -6 -4 -6 6 -1 10 -5 15 -11 12 -5 -3 -10 -1 -10 4 0 6 -6 11 -14 11 -7
0 -19 7 -26 15 -7 9 -15 13 -18 10 -3 -2 -11 3 -19 13 -9 11 -12 12 -8 2 4 -8
-4 -3 -17 12 -14 15 -28 25 -32 21 -3 -3 -6 -1 -6 6 0 7 -4 9 -10 6 -5 -3 -19
5 -31 18 -13 16 -28 23 -40 20 -11 -3 -19 0 -19 6 0 7 5 9 12 5 7 -4 8 -3 4 4
-4 6 -13 9 -21 5 -8 -3 -15 0 -15 7 0 6 -4 8 -10 5 -5 -3 -10 -1 -10 5 0 6 -4
8 -10 5 -5 -3 -10 -1 -10 5 0 6 -4 9 -9 5 -5 -3 -16 2 -24 10 -9 8 -23 15 -31
15 -9 0 -16 5 -16 10 0 6 -9 10 -21 10 -11 0 -17 4 -14 10 3 5 0 7 -8 4 -8 -3
-21 1 -28 8 -8 7 -21 14 -29 16 -8 2 -16 8 -18 13 -2 5 -12 9 -23 9 -10 0 -19
5 -19 11 0 5 -4 7 -10 4 -5 -3 -10 -1 -10 5 0 6 -8 10 -17 8 -10 -2 -17 2 -16
9 2 8 -4 10 -14 6 -12 -5 -14 -3 -8 7 5 8 4 11 -3 6 -6 -3 -27 3 -47 14 -20
11 -33 15 -29 8 4 -7 -1 -5 -12 4 -16 14 -23 15 -33 5 -10 -9 -11 -8 -5 6 3
10 3 17 -2 16 -5 -1 -11 -1 -14 1 -3 1 -16 4 -30 6 -13 3 -28 10 -32 18 -4 7
-17 12 -30 11 -13 -1 -28 5 -35 14 -8 10 -12 11 -13 4 0 -7 -7 -10 -15 -7 -8
4 -13 9 -10 13 4 8 -11 11 -52 12 -13 1 -20 5 -17 10 3 5 -6 9 -20 9 -13 0
-27 6 -29 13 -4 9 -6 9 -6 -1 -1 -10 -5 -10 -17 2 -8 9 -20 14 -25 11 -5 -4
-9 -1 -9 4 0 6 -5 11 -11 11 -5 0 -7 -5 -4 -11 8 -13 -37 12 -47 26 -5 6 -8 4
-8 -5 0 -11 -2 -12 -8 -3 -5 7 -21 14 -38 15 -16 1 -35 6 -41 11 -7 5 -13 6
-13 1 0 -4 -7 1 -16 12 -8 10 -13 14 -10 7 4 -7 -1 -11 -13 -10 -11 0 -17 5
-14 11 4 5 -3 7 -15 4 -12 -4 -22 -2 -22 3 0 4 -7 5 -17 2 -10 -4 -14 -2 -9 5
4 7 -3 10 -21 8 -16 -2 -33 3 -41 13 -7 9 -11 10 -7 4 4 -9 -2 -12 -19 -11
-16 2 -26 9 -26 18 0 9 -3 11 -8 5 -6 -9 -27 -11 -42 -5 -17 6 -67 14 -137 22
-7 1 -13 5 -13 10 0 4 -5 8 -11 8 -5 0 -7 -6 -3 -12 4 -7 -3 -4 -16 7 -13 11
-20 14 -16 7 6 -10 1 -11 -21 -6 -15 4 -38 8 -50 8 -13 0 -23 3 -23 6 0 4 -12
6 -27 5 -16 -1 -31 3 -35 9 -5 7 -8 7 -8 -1 0 -7 -5 -13 -11 -13 -5 0 -8 4 -5
9 4 5 -2 8 -11 6 -10 -1 -17 -9 -15 -16 2 -8 -4 -6 -17 5 -12 11 -21 16 -21
11 0 -4 -8 -1 -17 6 -15 12 -16 12 -10 -5 6 -14 4 -16 -5 -9 -7 6 -20 11 -28
11 -8 1 -37 6 -65 11 -35 6 -52 5 -57 -3 -5 -7 -8 -6 -8 4 0 13 -1 13 -10 0
-8 -12 -10 -12 -10 -1 0 11 -3 11 -17 0 -9 -8 -14 -9 -10 -3 7 13 -65 10 -86
-3 -6 -3 -7 -1 -3 5 4 7 2 12 -3 12 -6 0 -11 -6 -11 -12 0 -10 -3 -9 -9 1 -7
11 -9 11 -14 0 -5 -12 -6 -12 -6 0 -1 11 -4 11 -18 0 -9 -8 -14 -9 -10 -3 7
12 -45 11 -85 -2 -14 -4 -18 -2 -14 5 5 8 0 8 -17 2 -16 -6 -28 -6 -36 2 -8 8
-11 8 -11 -1 0 -9 -5 -10 -19 -2 -29 15 -35 12 -20 -7 11 -15 10 -14 -9 1 -17
14 -22 16 -22 5 0 -11 -2 -11 -10 1 -5 8 -10 10 -10 4 0 -8 -11 -9 -36 -4 -31
7 -35 6 -30 -8 5 -15 4 -15 -8 1 -15 19 -31 23 -20 5 5 -9 2 -9 -9 1 -11 8
-17 9 -17 3 0 -6 -6 -9 -12 -7 -27 10 -88 12 -88 3z m460 -4 c0 -8 -19 -13
-24 -6 -3 5 1 9 9 9 8 0 15 -2 15 -3z m160 0 c0 -8 -19 -13 -24 -6 -3 5 1 9 9
9 8 0 15 -2 15 -3z m-667 -850 c4 -1 19 -2 33 -3 16 -1 23 -5 18 -12 -5 -8 -2
-9 11 -1 14 7 23 5 39 -9 11 -11 26 -19 33 -19 7 0 13 -5 13 -11 0 -5 4 -7 10
-4 6 3 7 -1 4 -9 -3 -9 -1 -16 6 -16 6 0 8 -4 5 -10 -3 -5 -1 -10 4 -10 6 0
11 -7 11 -16 0 -9 9 -28 20 -44 11 -15 16 -31 12 -35 -4 -5 -2 -5 5 -2 6 4 17
2 25 -5 7 -7 22 -15 33 -16 11 -2 25 -8 30 -14 7 -8 6 -8 -4 -3 -9 5 -12 4 -7
-3 4 -6 13 -9 21 -5 8 3 15 0 15 -6 0 -8 5 -9 19 -1 11 5 22 6 25 1 3 -5 19
-7 36 -6 20 2 34 -3 40 -14 5 -9 10 -11 10 -4 0 7 10 3 23 -10 13 -12 21 -26
19 -30 -2 -5 5 -17 17 -28 12 -11 18 -25 15 -31 -5 -7 2 -9 22 -5 16 3 23 4
17 1 -7 -3 -13 -11 -13 -17 0 -5 3 -7 6 -4 4 3 15 2 25 -4 13 -6 19 -6 19 1 0
5 5 10 11 10 5 0 7 -6 3 -12 -6 -10 -5 -10 8 -1 8 7 19 9 23 5 5 -4 5 1 2 11
-5 12 -1 17 13 17 10 0 22 5 26 12 5 7 2 8 -7 3 -8 -4 -3 3 11 17 14 13 27 23
30 22 3 -1 7 7 7 18 1 12 8 25 15 29 7 5 9 9 3 9 -5 0 -2 5 8 11 9 5 17 17 17
25 0 8 4 13 9 10 5 -3 12 1 15 10 4 9 9 14 13 10 3 -3 15 2 26 11 11 10 18 13
14 7 -4 -7 5 -11 23 -11 18 0 27 4 23 11 -4 6 3 3 14 -7 11 -9 23 -14 28 -10
4 5 5 3 1 -4 -3 -7 2 -14 14 -18 11 -3 20 -11 20 -16 0 -6 -6 -7 -12 -3 -7 4
-5 -2 5 -14 11 -11 16 -26 12 -31 -3 -6 -1 -11 6 -11 9 0 9 -3 0 -14 -9 -11
-9 -16 0 -21 8 -6 8 -10 -2 -15 -10 -7 -10 -11 0 -24 11 -13 11 -16 0 -16 -12
0 -12 -2 -1 -9 16 -9 15 -20 -1 -40 -10 -12 -9 -13 2 -7 8 6 7 0 -4 -18 -10
-14 -22 -26 -27 -26 -5 0 -6 -4 -3 -10 3 -5 1 -10 -4 -10 -6 0 -11 4 -11 10 0
5 -7 7 -15 4 -8 -4 -12 -11 -8 -18 5 -8 3 -8 -8 0 -8 6 -22 10 -31 9 -10 -2
-18 1 -18 6 0 6 -4 7 -10 4 -5 -3 -10 -1 -10 5 0 6 -4 9 -9 5 -5 -3 -12 -1
-16 5 -4 6 -11 8 -16 5 -5 -4 -15 -3 -21 1 -17 11 -48 12 -48 3 0 -4 -9 -6
-20 -4 -11 2 -25 -4 -33 -16 -8 -10 -17 -16 -20 -12 -4 3 -7 -1 -7 -10 0 -9
-4 -17 -10 -17 -5 0 -10 -7 -10 -15 0 -8 -4 -15 -10 -15 -5 0 -10 -6 -10 -14
0 -8 -7 -16 -15 -20 -8 -3 -14 -10 -13 -15 2 -5 -6 -17 -17 -26 -11 -9 -14
-14 -8 -10 9 4 11 1 7 -10 -4 -9 -13 -14 -20 -11 -8 3 -14 2 -14 -2 0 -5 -7
-17 -16 -28 -8 -10 -13 -13 -9 -7 4 9 1 11 -9 7 -9 -3 -14 -9 -11 -14 7 -11
-44 -32 -90 -37 -58 -7 -68 -9 -87 -16 -32 -12 -53 -18 -53 -15 0 2 -11 -7
-24 -19 -13 -12 -20 -26 -16 -32 4 -7 1 -10 -7 -9 -7 2 -12 -3 -11 -9 2 -7 -4
-13 -13 -13 -8 0 -13 -4 -9 -9 3 -6 -3 -14 -12 -20 -10 -6 -14 -11 -9 -11 4 0
-2 -9 -15 -21 -13 -11 -17 -18 -9 -14 8 4 7 0 -4 -9 -23 -19 -46 -62 -46 -87
0 -11 -6 -19 -12 -20 -10 0 -10 -2 -1 -6 10 -3 10 -10 2 -24 -11 -22 -10 -141
2 -134 4 3 13 -8 21 -25 7 -16 16 -30 20 -30 5 0 8 -7 8 -16 0 -8 5 -12 10 -9
6 3 10 1 10 -5 0 -6 5 -8 12 -4 7 4 8 3 4 -4 -7 -12 29 -54 38 -45 3 4 6 1 6
-6 0 -8 6 -11 16 -7 8 3 13 2 10 -3 -3 -5 1 -11 9 -15 8 -3 17 0 21 6 5 7 2 8
-6 3 -9 -5 -11 -4 -6 4 6 9 11 9 22 0 8 -6 14 -8 14 -3 0 5 7 0 15 -10 8 -11
15 -15 15 -10 0 11 35 12 46 2 3 -4 13 -4 22 -1 11 5 13 3 7 -8 -6 -11 -5 -11
5 -2 10 9 20 9 44 -1 35 -15 40 -16 62 -16 9 0 12 -5 8 -12 -4 -7 -3 -8 5 -4
6 4 25 0 42 -8 17 -9 36 -13 42 -9 6 3 7 1 3 -5 -4 -7 -1 -12 8 -12 9 0 16 -5
16 -12 0 -6 3 -8 7 -5 3 4 15 0 25 -10 10 -9 18 -12 18 -7 0 5 7 -1 15 -13 10
-14 22 -19 35 -16 12 3 20 0 20 -7 0 -7 8 -10 20 -7 11 3 20 1 20 -3 0 -4 10
-6 22 -2 16 4 19 2 13 -9 -7 -11 -5 -11 10 1 11 9 16 10 11 3 -4 -7 -3 -13 1
-13 5 0 15 6 22 13 10 10 12 9 9 -3 -2 -10 3 -14 15 -12 9 2 17 -2 17 -8 0 -5
6 -9 13 -8 6 2 11 -5 11 -14 -1 -11 4 -14 14 -11 10 4 13 2 8 -5 -4 -7 -2 -12
4 -12 6 0 9 -4 6 -9 -3 -5 1 -11 9 -15 8 -3 15 -15 15 -26 0 -11 4 -20 10 -20
5 0 7 -6 4 -14 -3 -8 0 -17 5 -21 6 -3 9 -11 6 -16 -4 -5 -2 -9 4 -9 6 0 8 -7
5 -15 -4 -8 -1 -15 5 -15 6 0 8 -7 4 -17 -4 -10 -2 -14 4 -10 6 4 20 -12 32
-39 12 -24 26 -42 31 -39 6 3 10 1 10 -5 0 -6 5 -8 10 -5 6 3 10 -2 10 -12 0
-14 2 -15 9 -5 4 8 12 14 16 14 4 0 12 -6 16 -14 7 -11 9 -11 9 1 0 8 7 11 20
8 11 -3 20 0 21 6 0 9 2 9 5 0 4 -8 12 -5 25 8 11 11 17 25 13 31 -4 6 -3 8 4
4 6 -3 13 -2 17 4 3 5 0 10 -7 10 -8 0 -9 3 -3 8 13 9 13 58 1 69 -5 5 -6 2
-1 -6 6 -10 4 -12 -4 -7 -9 6 -9 11 1 24 10 12 10 14 1 8 -14 -8 -17 2 -13 42
1 12 -4 22 -12 22 -10 0 -9 3 2 10 8 5 11 10 6 10 -5 0 -3 7 4 15 6 8 9 19 5
25 -3 5 1 10 10 10 9 0 13 5 10 10 -3 6 -1 10 4 10 6 0 11 8 11 18 0 14 2 15
10 2 9 -13 14 -7 11 13 0 4 4 7 10 7 5 0 8 4 5 9 -4 5 4 7 16 4 13 -3 20 -3
16 1 -7 9 27 46 42 46 5 0 6 7 3 17 -5 12 -3 14 7 8 10 -6 12 -4 7 8 -3 9 1
18 10 21 14 6 13 9 -3 28 -11 12 -13 18 -7 14 9 -5 11 -2 7 8 -3 9 -10 16 -15
16 -5 0 -9 9 -9 21 0 11 -4 17 -10 14 -5 -3 -10 1 -10 10 0 9 -4 13 -10 10 -5
-3 -10 1 -10 10 0 9 -4 13 -10 10 -5 -3 -10 1 -10 10 0 9 -6 23 -14 31 -13 12
-13 29 -2 69 2 6 6 22 11 37 4 16 10 26 14 23 10 -6 7 27 -4 44 -5 10 -4 12 3
7 7 -4 12 -2 12 3 0 6 -6 11 -12 12 -10 0 -10 2 -1 6 9 3 10 10 3 24 -8 14 -7
19 2 19 10 0 10 2 -1 9 -8 5 -10 14 -6 22 6 9 3 11 -11 6 -17 -6 -17 -6 -2 6
12 9 14 18 7 30 -7 12 -6 17 1 17 6 0 9 4 6 9 -3 5 1 11 9 15 9 3 12 12 8 23
-6 16 -5 16 10 4 13 -10 17 -10 17 -1 0 7 6 10 14 7 8 -3 17 -1 19 6 3 9 8 9
19 -1 13 -10 17 -10 21 0 4 10 8 10 16 -2 9 -13 11 -12 12 5 1 15 2 16 6 4 3
-12 13 -15 34 -13 22 3 28 0 23 -9 -5 -7 0 -5 11 3 11 9 16 10 11 3 -5 -9 0
-13 16 -13 13 0 29 -5 36 -12 9 -9 12 -9 12 2 0 11 3 11 12 2 7 -7 20 -12 30
-12 10 0 18 -5 18 -11 0 -5 4 -8 9 -5 5 3 21 -4 37 -16 15 -13 25 -17 20 -10
-4 7 -2 12 4 12 6 0 13 -7 16 -15 4 -8 10 -15 16 -15 5 0 6 6 3 13 -4 6 -1 5
7 -4 7 -9 19 -14 26 -12 6 3 12 -1 12 -7 0 -7 8 -10 19 -7 14 3 18 1 14 -9 -3
-9 2 -14 17 -14 14 0 19 -4 14 -12 -5 -8 -2 -9 10 -5 10 4 15 3 11 -3 -3 -5 5
-25 19 -43 21 -27 23 -36 13 -47 -10 -10 -9 -11 2 -5 11 6 13 4 8 -8 -3 -10
-2 -17 3 -17 5 0 6 -7 3 -17 -4 -10 -2 -14 4 -10 6 4 14 0 17 -9 4 -10 2 -13
-7 -8 -6 4 -2 -3 10 -15 12 -11 27 -21 33 -21 6 0 8 -4 5 -10 -3 -5 3 -10 14
-10 12 0 21 -4 21 -10 0 -5 12 -10 26 -10 17 0 23 4 18 13 -5 8 -2 8 9 -2 14
-11 17 -11 17 0 0 11 2 11 10 -1 8 -12 10 -12 16 3 3 9 10 15 14 12 11 -7 80
31 98 54 7 9 11 10 7 4 -3 -7 -1 -13 4 -13 6 0 11 4 11 8 0 5 7 17 16 28 15
19 16 19 10 -1 -6 -19 -5 -19 8 -2 10 13 16 15 21 7 6 -9 9 -9 15 0 4 7 13 9
19 6 6 -4 9 -12 5 -17 -3 -5 0 -8 7 -7 7 2 18 -7 24 -19 7 -13 14 -21 16 -18
3 2 11 -5 18 -17 10 -16 10 -19 -1 -12 -10 6 -10 4 1 -9 7 -9 18 -14 24 -10 6
4 8 0 4 -11 -4 -10 -3 -15 3 -11 6 3 13 -1 16 -9 3 -9 11 -13 18 -9 6 4 4 -2
-4 -12 -9 -11 -10 -16 -2 -11 7 4 12 2 12 -4 0 -7 7 -9 16 -6 9 3 12 2 9 -5
-4 -6 1 -19 10 -29 9 -10 14 -24 10 -29 -3 -6 -1 -11 5 -11 7 0 10 -7 7 -15
-4 -8 -1 -17 4 -21 6 -3 9 -14 6 -24 -3 -12 2 -20 15 -24 14 -3 19 -10 15 -20
-4 -10 -1 -16 9 -16 8 0 12 -4 9 -10 -3 -5 1 -10 10 -10 10 0 13 -5 9 -12 -4
-6 -3 -8 3 -5 5 3 21 0 35 -7 20 -11 29 -11 39 -2 9 8 10 8 4 -4 -8 -13 -6
-13 7 -2 13 10 17 10 20 0 4 -10 8 -10 21 1 10 7 17 9 17 4 0 -5 14 -9 30 -8
23 1 30 -2 26 -12 -3 -8 -2 -12 2 -9 4 2 19 -5 32 -16 14 -11 18 -16 10 -12
-8 4 1 -8 21 -27 19 -19 26 -27 14 -19 -12 8 -2 -3 22 -26 24 -22 43 -46 43
-53 0 -7 5 -9 10 -6 9 6 14 -8 11 -29 -1 -4 4 -15 11 -24 10 -12 10 -14 1 -8
-12 7 -18 -5 -14 -27 1 -4 -6 -10 -14 -13 -8 -3 -13 -9 -11 -13 2 -3 -16 -16
-40 -27 -24 -12 -41 -17 -38 -10 3 6 -2 2 -10 -8 -12 -15 -16 -16 -16 -5 -1
10 -3 9 -11 -3 -5 -10 -15 -18 -21 -18 -6 0 -17 -8 -24 -17 -13 -17 -14 -17
-7 2 6 17 5 18 -9 5 -9 -8 -14 -18 -11 -22 2 -5 -1 -8 -7 -8 -6 0 -8 -5 -4
-12 5 -8 2 -9 -9 -5 -12 4 -17 1 -17 -10 0 -9 -3 -13 -7 -10 -3 4 -17 -2 -29
-14 -14 -13 -24 -17 -29 -10 -3 6 -11 11 -16 11 -6 0 -7 -5 -3 -11 5 -8 1 -8
-13 0 -11 6 -23 7 -27 4 -3 -3 -6 -1 -6 6 0 8 -8 11 -20 8 -11 -3 -20 -1 -20
4 0 5 -5 9 -11 9 -5 0 -8 -4 -5 -8 6 -10 -30 -9 -40 1 -12 12 -26 8 -18 -5 5
-9 2 -9 -9 1 -14 11 -17 11 -17 0 0 -10 -3 -10 -12 -1 -15 15 -32 16 -22 1 4
-8 0 -8 -15 0 -18 10 -20 9 -15 -6 5 -17 5 -17 -6 0 -12 19 -35 24 -24 5 5 -9
2 -9 -9 1 -9 7 -17 9 -17 4 0 -5 -10 -9 -22 -8 -13 1 -26 -3 -30 -9 -5 -8 -8
-7 -8 1 0 7 -7 10 -15 7 -8 -4 -12 -10 -9 -15 3 -5 -6 -9 -20 -9 -14 0 -26 -3
-26 -8 0 -4 -9 -13 -20 -19 -17 -11 -19 -10 -14 5 5 14 4 14 -4 2 -13 -17 -6
-30 14 -30 8 0 14 -5 14 -11 0 -5 4 -8 9 -4 5 3 13 0 16 -6 4 -5 14 -8 22 -4
13 4 14 3 3 -10 -11 -13 -10 -14 4 -9 11 4 16 2 14 -7 -2 -8 3 -13 10 -11 10
2 10 -2 3 -17 -6 -10 -8 -21 -5 -24 3 -3 1 -14 -5 -25 -7 -13 -7 -23 2 -32 9
-10 9 -11 0 -6 -6 3 -14 2 -17 -3 -3 -5 1 -12 10 -15 9 -3 14 -13 11 -20 -3
-8 1 -17 10 -20 13 -5 13 -9 2 -23 -8 -9 -9 -14 -3 -10 15 9 15 -43 0 -62 -9
-12 -8 -13 4 -7 8 4 6 1 -4 -8 -10 -8 -23 -13 -28 -10 -5 3 -7 0 -6 -8 2 -7
-5 -12 -14 -12 -10 1 -15 -2 -12 -7 3 -5 -1 -10 -8 -11 -43 -5 -69 -18 -61
-31 4 -6 1 -7 -7 -2 -8 5 -17 2 -24 -6 -6 -8 -18 -14 -26 -14 -8 0 -14 -5 -13
-12 2 -7 -4 -10 -12 -7 -8 4 -15 1 -15 -6 0 -6 -4 -9 -9 -5 -6 3 -13 0 -18 -7
-4 -7 -15 -13 -23 -13 -8 0 -14 -5 -13 -10 1 -6 -7 -12 -18 -13 -41 -4 -48 -6
-44 -12 2 -4 -8 -13 -23 -21 -15 -8 -31 -20 -35 -27 -5 -7 -14 -9 -20 -5 -7 4
-5 -2 3 -12 9 -11 10 -16 3 -11 -13 7 -16 0 -16 -36 0 -10 -4 -15 -8 -12 -5 3
-9 -4 -9 -15 0 -12 -5 -21 -11 -21 -5 0 -7 -5 -3 -12 5 -8 2 -9 -10 -5 -10 4
-15 3 -11 -4 9 -14 -14 -39 -37 -39 -10 0 -16 -4 -13 -10 4 -6 -5 -10 -20 -10
-14 0 -24 -4 -21 -9 4 -5 -5 -8 -18 -7 -14 2 -24 -2 -23 -8 1 -6 -5 -11 -13
-11 -8 0 -26 -10 -39 -22 -14 -12 -29 -19 -35 -16 -6 4 -5 -1 3 -11 12 -15 12
-17 0 -14 -9 2 -13 -4 -12 -19 2 -16 -1 -21 -13 -16 -8 3 -14 2 -13 -3 4 -21
-2 -35 -11 -29 -5 3 -10 -1 -10 -10 0 -9 -4 -14 -9 -10 -5 3 -12 1 -16 -5 -4
-7 -12 -7 -25 0 -13 7 -21 7 -26 -2 -5 -7 -3 -8 6 -3 8 5 11 4 6 -3 -3 -6 -15
-9 -26 -7 -11 2 -20 0 -20 -6 0 -5 -7 -9 -16 -9 -11 0 -14 -5 -10 -16 5 -12 2
-15 -9 -10 -9 3 -13 2 -10 -4 3 -6 3 -16 -2 -22 -4 -7 -8 -16 -9 -20 -1 -5 -3
-9 -4 -10 -7 -8 -5 -56 2 -52 4 3 8 -3 8 -13 0 -11 6 -25 13 -32 10 -11 10
-13 0 -7 -7 4 -13 2 -13 -3 0 -6 5 -11 10 -11 13 0 10 -60 -4 -79 -8 -11 -8
-13 0 -8 6 3 11 0 11 -8 0 -8 -3 -13 -5 -10 -3 3 -11 -7 -19 -22 -10 -20 -11
-28 -2 -34 8 -4 4 -9 -11 -14 -18 -6 -20 -9 -9 -16 12 -7 12 -9 0 -9 -8 0 -12
-3 -8 -6 3 -3 -9 -20 -26 -37 -18 -17 -31 -35 -30 -39 2 -4 -2 -9 -7 -9 -6 -1
-14 -2 -20 -3 -5 0 -16 -10 -25 -21 -9 -11 -14 -14 -10 -7 3 6 2 12 -3 12 -6
0 -13 -7 -16 -16 -4 -9 -9 -14 -13 -11 -3 4 -12 -1 -19 -11 -9 -11 -13 -13
-14 -4 0 7 -5 10 -10 7 -6 -4 -7 -12 -3 -18 5 -9 3 -9 -8 -1 -11 9 -17 9 -26
-1 -6 -7 -10 -15 -7 -18 3 -2 -6 -4 -18 -3 -14 0 -22 -4 -21 -11 2 -7 -6 -13
-18 -13 -11 0 -18 -4 -14 -9 3 -6 -2 -14 -11 -19 -9 -5 -16 -12 -15 -15 1 -18
-12 -36 -23 -30 -6 4 -5 -1 3 -10 7 -10 9 -17 3 -17 -6 0 -9 -8 -8 -17 2 -10
-2 -21 -8 -25 -8 -5 -7 -8 2 -8 7 0 10 -5 7 -10 -3 -5 -1 -10 5 -10 6 0 9 -4
5 -9 -3 -5 -1 -12 5 -16 6 -4 8 -10 6 -14 -3 -4 4 -14 15 -21 10 -8 19 -21 19
-30 0 -13 1 -13 10 0 8 12 10 10 10 -8 0 -15 4 -21 12 -16 8 5 9 2 5 -9 -3
-10 -2 -17 2 -17 5 0 7 -9 4 -20 -3 -11 0 -20 6 -20 6 0 11 -10 11 -22 0 -113
2 -138 13 -131 7 4 7 0 -1 -10 -8 -9 -11 -20 -8 -26 3 -5 0 -12 -6 -14 -7 -3
-4 -6 7 -6 17 -1 17 -3 5 -11 -8 -5 -11 -10 -6 -10 6 0 1 -7 -10 -16 -10 -8
-13 -13 -6 -9 17 9 15 -3 -5 -24 -10 -10 -27 -16 -38 -14 -11 2 -26 5 -32 5
-7 1 -13 10 -13 20 0 11 -5 16 -10 13 -6 -3 -10 1 -10 10 0 10 -5 13 -12 9 -8
-5 -9 -2 -5 9 3 9 -1 23 -9 32 -9 8 -12 15 -7 15 4 0 1 4 -7 10 -8 5 -15 19
-15 32 0 13 -4 29 -9 37 -7 10 -5 12 5 7 10 -6 10 -4 -1 6 -15 13 -21 28 -25
61 -1 19 -65 90 -73 82 -3 -3 -12 1 -20 8 -13 9 -14 9 -8 0 4 -7 2 -13 -3 -13
-6 0 -11 5 -11 11 0 6 -7 9 -15 5 -8 -3 -19 2 -24 12 -8 13 -10 13 -11 3 0
-11 -4 -10 -16 5 -8 10 -12 12 -8 4 6 -11 2 -10 -13 3 -11 9 -23 14 -26 10 -4
-3 -7 -1 -7 6 0 7 -4 9 -10 6 -5 -3 -10 -1 -10 4 0 6 -7 11 -15 11 -8 0 -15
-6 -15 -12 0 -9 -3 -8 -10 2 -5 8 -14 16 -20 16 -5 1 -11 2 -12 4 -8 6 -71 4
-75 -3 -3 -4 -11 -3 -19 4 -10 8 -14 8 -14 0 0 -7 -8 -8 -25 -1 -18 7 -23 6
-19 -4 3 -9 -4 -12 -25 -11 -17 1 -29 -3 -28 -9 1 -6 -5 -11 -13 -11 -8 0 -19
-8 -25 -17 -5 -9 -14 -17 -20 -18 -5 -1 -9 -5 -8 -9 1 -4 -4 -8 -12 -8 -8 0
-12 5 -8 10 3 5 -4 4 -16 -2 -11 -7 -21 -8 -21 -4 0 5 -12 10 -26 11 -15 1
-33 7 -40 12 -8 8 -14 8 -19 0 -4 -7 -12 -7 -25 0 -11 6 -21 6 -24 1 -8 -13
-36 -7 -47 10 -7 11 -9 10 -9 -5 0 -16 -2 -16 -16 -6 -12 11 -15 11 -12 0 2
-10 -7 -14 -29 -14 -18 0 -30 -2 -28 -5 3 -2 0 -10 -6 -18 -10 -11 -15 -11
-27 -1 -13 10 -14 10 -8 1 4 -8 2 -13 -4 -13 -7 0 -21 -10 -32 -22 -11 -13
-16 -16 -12 -8 7 12 5 13 -8 3 -8 -7 -19 -9 -23 -5 -5 4 -6 3 -3 -3 5 -10 -26
-46 -38 -44 -10 1 -52 -49 -46 -55 3 -3 0 -6 -6 -6 -7 0 -12 -8 -12 -18 0 -10
-5 -23 -12 -30 -9 -9 -9 -15 0 -24 14 -14 16 -32 4 -24 -5 3 -9 -1 -9 -9 0 -8
4 -12 9 -9 4 3 8 -8 8 -23 0 -16 6 -35 13 -42 10 -11 9 -12 -1 -6 -10 5 -13 1
-12 -11 5 -43 0 -65 -12 -58 -9 5 -9 2 1 -9 11 -14 11 -17 0 -17 -11 0 -11 -2
1 -10 13 -9 13 -10 0 -10 -9 0 -11 -3 -5 -8 12 -9 19 -36 7 -28 -5 3 -9 -8 -9
-24 0 -16 3 -27 7 -25 8 5 5 -33 -5 -65 -4 -14 -3 -20 3 -16 10 6 7 -48 -3
-65 -4 -5 -1 -9 5 -9 8 0 7 -6 -1 -21 -8 -15 -8 -19 0 -15 7 5 11 -2 11 -16 0
-13 5 -29 12 -36 9 -9 9 -12 -1 -12 -9 0 -8 -5 3 -16 9 -8 14 -20 11 -25 -4
-5 -1 -9 4 -9 6 0 11 -6 11 -14 0 -21 26 -67 33 -59 4 3 7 0 7 -7 0 -7 8 -19
18 -27 11 -10 12 -12 2 -8 -8 4 -6 0 4 -9 10 -8 24 -13 29 -9 7 4 8 -1 3 -13
-4 -10 -4 -15 0 -11 4 4 13 2 20 -4 8 -6 21 -9 29 -5 9 3 14 2 11 -3 -3 -5 2
-15 11 -22 12 -10 14 -10 9 -1 -4 6 -2 12 3 12 6 0 11 -5 11 -10 0 -7 6 -7 18
-1 13 7 23 6 31 -2 9 -9 16 -8 32 1 12 8 18 9 14 3 -9 -15 8 -14 24 2 11 10
13 10 7 0 -5 -8 -1 -13 9 -13 10 0 13 5 9 13 -4 6 3 3 15 -7 21 -19 21 -19 15
-1 -5 13 -4 16 4 11 7 -4 12 -2 12 5 0 8 4 8 13 1 10 -8 17 -6 27 8 7 10 16
17 19 15 3 -1 15 9 25 23 11 14 14 22 8 18 -7 -4 -12 -2 -12 3 0 6 7 11 16 11
11 0 14 5 10 16 -5 12 -2 15 10 10 14 -5 15 -4 4 9 -8 10 -9 15 -1 15 6 0 11
9 11 19 0 10 7 22 16 25 9 4 14 13 10 21 -3 8 -1 15 4 15 6 0 12 0 15 0 8 0
42 35 39 40 -1 3 9 7 24 8 14 1 29 8 34 15 6 9 8 9 8 -2 0 -11 3 -11 17 0 14
12 16 12 8 0 -6 -11 -3 -13 13 -9 12 4 22 2 22 -3 0 -4 7 -5 17 -2 11 4 14 3
9 -5 -4 -7 -2 -12 4 -12 6 0 9 -4 6 -9 -3 -5 1 -12 10 -15 12 -5 13 -10 6 -19
-6 -7 -7 -18 -2 -26 11 -18 1 -43 -14 -34 -6 4 -4 -2 4 -12 8 -10 10 -16 4
-12 -7 4 -15 0 -18 -9 -4 -10 -2 -13 7 -9 6 4 4 0 -6 -8 -10 -8 -19 -24 -20
-35 0 -11 -6 -18 -14 -15 -8 3 -11 -2 -8 -16 2 -12 0 -21 -4 -21 -5 0 -8 -10
-7 -22 0 -13 -3 -22 -9 -21 -6 1 -9 -18 -8 -43 0 -24 -3 -44 -8 -44 -5 0 -5
-10 1 -24 5 -15 5 -27 -2 -34 -7 -7 -3 -12 13 -17 23 -8 23 -8 4 -16 -17 -6
-16 -8 8 -8 20 -1 26 -5 21 -13 -5 -10 -4 -10 6 -1 9 9 17 9 26 2 8 -7 14 -7
19 1 4 7 13 7 27 -1 15 -8 19 -8 14 0 -4 6 -4 11 -1 11 4 0 16 -5 27 -11 15
-8 19 -8 14 0 -4 6 -3 11 3 11 5 0 13 -5 16 -10 4 -6 11 -7 18 -3 6 4 24 8 40
10 20 2 26 0 21 -10 -6 -9 -4 -9 8 1 14 11 19 9 37 -14 12 -15 21 -31 21 -35
0 -5 7 -9 16 -9 8 0 12 -5 9 -10 -3 -6 -2 -10 4 -10 6 0 7 -8 4 -17 -5 -12 -2
-15 9 -10 12 4 14 1 11 -14 -3 -10 -1 -19 5 -19 5 0 13 -7 16 -16 3 -8 2 -13
-2 -10 -5 3 -9 -1 -9 -9 0 -8 3 -13 5 -10 13 12 29 -31 21 -57 -4 -17 -4 -30
3 -34 7 -4 6 -9 -3 -14 -7 -5 -14 -16 -15 -26 -2 -9 -9 -21 -16 -25 -7 -5 -9
-9 -5 -9 5 0 1 -7 -8 -16 -13 -13 -13 -19 -3 -32 10 -12 10 -14 0 -8 -9 5 -11
1 -8 -16 3 -13 5 -24 7 -25 1 -2 2 -6 3 -10 1 -5 7 -18 14 -31 7 -12 10 -22 7
-22 -3 0 -1 -9 5 -20 6 -11 16 -17 22 -14 6 4 9 3 5 -2 -3 -5 1 -20 9 -34 7
-14 13 -21 14 -15 0 5 8 -2 17 -15 10 -14 17 -29 15 -34 -2 -5 4 -4 12 4 12 9
19 10 29 1 8 -6 17 -8 20 -4 4 3 9 -2 13 -11 3 -9 10 -16 16 -16 5 0 6 5 3 10
-3 6 1 10 10 10 9 0 14 -4 11 -9 -3 -4 6 -6 19 -3 15 2 25 0 25 -7 0 -6 4 -10
9 -8 5 1 9 0 9 -3 0 -3 5 -17 11 -32 8 -22 7 -29 -7 -37 -9 -6 -13 -11 -9 -11
4 0 2 -6 -5 -14 -7 -8 -16 -12 -20 -9 -5 2 -8 0 -8 -5 0 -5 -16 -9 -35 -8 -19
0 -35 5 -35 9 0 5 -5 5 -10 2 -6 -3 -14 4 -19 17 -6 13 -10 19 -10 15 -1 -4
-12 3 -25 15 -13 13 -21 26 -19 30 2 4 -3 5 -11 2 -11 -4 -16 0 -16 10 0 9 -5
16 -11 16 -5 0 -7 -6 -3 -12 4 -8 3 -10 -2 -5 -5 5 -9 14 -9 20 0 7 -4 12 -10
12 -22 1 -55 27 -49 37 5 8 1 9 -10 5 -10 -4 -19 -1 -23 9 -3 9 -17 20 -30 25
-13 5 -21 14 -18 19 4 6 3 10 -2 9 -4 -1 -15 -1 -23 0 -13 1 -13 2 0 11 12 8
11 10 -7 10 -14 0 -23 6 -23 16 0 8 -4 12 -10 9 -5 -3 -10 1 -10 9 0 9 -5 16
-11 16 -5 0 -7 5 -4 10 3 6 -1 13 -9 16 -9 3 -13 10 -10 15 3 5 0 9 -5 9 -6 0
-11 10 -11 23 0 18 -2 19 -11 7 -9 -12 -10 -11 -6 8 4 15 -1 27 -15 36 -11 8
-17 19 -13 25 3 6 -2 14 -12 18 -10 4 -26 15 -35 25 -9 11 -20 20 -25 21 -4 1
-7 6 -5 11 2 5 -4 4 -12 -4 -13 -10 -16 -10 -16 0 0 8 -3 10 -7 7 -3 -4 -13
-1 -21 6 -13 10 -14 9 -8 -1 7 -11 4 -12 -13 -3 -11 7 -21 9 -21 5 0 -4 -8 0
-17 8 -10 9 -26 14 -35 13 -10 -2 -18 1 -18 6 0 5 -3 8 -7 8 -26 -4 -43 2 -37
14 5 7 0 6 -11 -3 -10 -8 -16 -10 -12 -4 4 7 -1 18 -10 25 -14 12 -16 12 -8
-1 6 -11 3 -10 -12 3 -11 9 -23 14 -28 10 -4 -5 -6 -3 -3 2 5 9 -15 36 -27 35
-3 0 -5 2 -5 5 1 10 -28 35 -40 35 -6 0 -8 5 -5 10 3 6 -1 10 -10 10 -9 0 -19
9 -22 20 -3 11 -12 20 -19 20 -8 0 -17 7 -20 15 -4 8 -10 12 -15 9 -5 -3 -9 2
-9 11 0 13 -4 14 -21 4 -15 -8 -19 -8 -15 0 4 6 0 11 -8 11 -9 0 -16 6 -17 13
0 9 -2 9 -6 -1 -4 -10 -8 -10 -19 -1 -10 8 -14 8 -14 0 0 -6 -5 -11 -11 -11
-5 0 -8 4 -5 8 2 4 -4 8 -14 8 -10 0 -17 -3 -14 -7 2 -4 -5 -9 -16 -12 -11 -3
-20 0 -20 5 0 7 -5 7 -12 1 -7 -5 -37 -8 -65 -7 -36 1 -50 -2 -46 -10 4 -6 0
-6 -9 1 -8 7 -18 10 -21 6 -4 -3 -7 -2 -7 4 0 5 -6 10 -12 11 -41 3 -56 7 -52
13 2 4 -3 10 -12 13 -10 4 -13 2 -9 -7 4 -6 0 -4 -8 6 -8 9 -19 17 -25 17 -5
0 -12 7 -16 15 -3 8 -9 14 -13 13 -19 -4 -64 23 -57 34 4 6 3 8 -4 4 -6 -3
-13 -2 -17 4 -3 5 -15 10 -25 10 -10 0 -22 5 -26 12 -5 7 -3 8 6 3 8 -5 11 -4
6 3 -4 6 -13 9 -21 5 -8 -3 -15 0 -15 7 0 6 -4 9 -9 5 -5 -3 -16 1 -24 9 -8 8
-17 12 -21 9 -3 -4 -6 0 -6 7 0 7 -3 10 -7 7 -3 -4 -15 1 -26 10 -15 13 -18
14 -12 3 4 -8 -2 -5 -14 7 -12 13 -29 23 -37 23 -8 0 -13 4 -10 8 2 4 -9 18
-25 31 -16 13 -26 27 -23 32 3 5 -1 9 -8 9 -8 0 -14 10 -15 22 -1 11 -7 25
-14 29 -7 4 -9 14 -6 22 3 9 -1 21 -9 28 -12 9 -12 15 -2 27 8 9 8 13 2 9 -7
-4 -12 3 -13 18 -3 48 -4 55 -13 55 -5 0 -6 9 -3 20 4 11 2 20 -4 20 -6 0 -8
7 -5 15 4 8 1 15 -5 15 -6 0 -11 7 -11 15 0 27 -30 75 -46 75 -8 0 -12 5 -9
10 3 6 1 10 -5 10 -6 0 -9 4 -6 9 3 5 -3 11 -14 14 -11 3 -20 13 -20 22 0 9
-5 13 -10 10 -6 -3 -10 -1 -10 5 0 6 -4 8 -10 5 -5 -3 -10 1 -10 10 0 9 -3 14
-7 12 -10 -6 -34 19 -26 27 4 3 -1 6 -10 6 -15 0 -22 11 -18 33 0 4 -4 7 -10
7 -5 0 -7 5 -4 10 3 6 2 10 -4 10 -6 0 -15 10 -22 21 -9 17 -8 20 3 13 15 -8
-19 34 -41 52 -8 6 -11 16 -6 24 5 8 4 11 -3 6 -10 -6 -21 2 -55 43 -10 13
-23 19 -30 15 -8 -5 -7 -2 2 9 12 15 11 17 -2 17 -9 0 -18 9 -22 19 -3 11 -13
22 -21 25 -8 3 -13 10 -9 15 3 5 0 13 -6 17 -8 4 -9 3 -5 -4 4 -7 2 -12 -5
-12 -7 0 -9 8 -6 21 5 17 3 18 -11 7 -9 -7 -13 -8 -9 -2 4 7 0 17 -8 24 -8 7
-13 16 -10 20 2 4 -6 13 -20 20 -15 8 -22 19 -20 31 2 10 -1 18 -8 16 -6 -1
-11 3 -12 10 0 6 -3 15 -7 19 -5 4 -8 18 -8 31 0 13 -4 23 -10 23 -5 0 -10 9
-10 21 0 11 -4 18 -9 15 -5 -3 -12 4 -16 17 -4 15 -8 18 -12 8 -5 -11 -7 -11
-15 0 -7 10 -8 8 -5 -9 5 -20 3 -22 -11 -10 -12 10 -14 10 -8 1 4 -8 2 -13 -6
-13 -8 -1 -6 -6 6 -15 19 -14 19 -15 1 -15 -17 0 -17 -1 -2 -18 10 -10 17 -26
17 -36 0 -11 4 -15 13 -10 7 5 6 0 -3 -11 -9 -11 -10 -16 -2 -11 7 4 12 1 12
-9 0 -8 10 -20 23 -25 12 -5 16 -9 10 -9 -7 -1 -13 -6 -13 -12 0 -5 5 -7 12
-3 8 5 9 2 5 -9 -3 -9 -1 -19 5 -23 7 -5 8 -2 3 6 -5 9 -4 11 4 6 7 -4 10 -13
8 -19 -2 -7 3 -18 12 -25 13 -11 13 -12 1 -6 -9 4 -6 -3 6 -17 12 -13 19 -30
17 -36 -3 -7 3 -13 12 -13 12 0 15 -6 10 -20 -4 -12 -2 -20 5 -20 6 0 8 -5 4
-12 -5 -8 -1 -9 12 -4 15 5 16 4 7 -5 -11 -11 -7 -42 6 -35 3 2 6 -11 7 -30 0
-22 -2 -30 -7 -22 -7 10 -9 10 -9 -2 0 -12 -2 -12 -9 -2 -4 8 -11 12 -15 10
-4 -1 -14 8 -23 22 -10 18 -13 19 -8 5 4 -14 -4 -9 -26 15 -17 19 -28 28 -24
20 4 -8 -3 -4 -14 10 -11 14 -21 31 -21 38 0 8 -5 10 -12 6 -9 -5 -9 -2 1 9
11 15 11 17 -2 17 -10 0 -13 6 -10 20 3 11 0 20 -6 20 -6 0 -11 11 -11 25 0
14 -6 25 -12 25 -10 0 -9 3 1 9 11 7 9 10 -8 16 -12 3 -19 10 -16 15 3 5 -2
16 -11 25 -20 19 -54 84 -54 101 0 7 -7 15 -16 18 -8 3 -12 10 -9 16 3 5 1 10
-5 10 -7 0 -9 7 -6 15 4 10 -2 19 -17 25 -13 5 -16 9 -7 10 10 0 11 3 4 8 -6
4 -17 18 -24 32 -13 24 -12 24 6 10 18 -14 18 -14 1 6 -9 11 -14 24 -10 29 5
4 2 5 -4 1 -8 -4 -13 -1 -13 8 0 9 -6 16 -12 17 -10 0 -10 2 0 6 9 3 7 10 -9
24 -12 10 -17 19 -10 19 7 0 -8 20 -32 45 -25 25 -52 45 -61 45 -9 0 -16 7
-16 16 0 8 -4 12 -10 9 -5 -3 -10 -1 -10 6 0 7 -3 9 -6 6 -4 -4 -15 3 -25 14
-9 11 -19 20 -21 19 -10 -4 -37 14 -32 21 3 5 -4 9 -16 9 -12 0 -19 4 -15 9 3
6 -4 15 -15 21 -11 6 -19 14 -16 18 6 10 -21 32 -30 24 -4 -4 -4 -2 0 5 3 6
-2 16 -11 22 -10 6 -13 11 -8 11 6 0 -3 12 -20 26 -16 14 -24 22 -17 19 11 -6
12 -3 3 14 -7 11 -17 21 -24 21 -7 0 -6 4 3 10 13 9 13 10 0 11 -8 1 -19 1
-24 0 -5 -1 -4 5 4 13 8 11 9 16 1 16 -6 0 -11 7 -11 15 0 7 -8 19 -17 24 -10
6 -14 11 -8 11 5 0 -1 7 -13 16 -13 9 -22 26 -22 40 0 14 -4 23 -8 20 -4 -2
-14 4 -21 16 -10 16 -10 19 1 12 7 -4 5 1 -4 12 -15 17 -27 61 -30 112 -1 6
-4 12 -8 12 -4 0 -6 10 -5 23 1 12 -2 28 -8 35 -5 6 -5 12 0 12 9 0 10 40 1
56 -3 5 -5 25 -5 44 1 20 -2 41 -7 48 -4 7 -1 15 8 18 9 3 13 10 10 16 -10 17
-11 67 0 61 5 -4 7 1 3 10 -4 10 -1 17 6 18 8 0 8 2 -1 6 -10 4 -9 10 5 25 9
11 13 19 8 18 -22 -5 -26 1 -10 16 11 12 13 20 5 29 -7 8 -7 16 -2 19 11 7 22
66 12 66 -4 0 -5 12 -2 26 4 21 2 25 -9 19 -11 -7 -12 -6 -2 7 7 8 10 17 7 20
-2 3 -7 17 -10 32 -3 19 0 26 12 26 10 0 14 5 10 15 -4 13 -2 14 14 5 11 -6
20 -7 20 -2 0 5 12 7 26 4 21 -4 25 -2 19 9 -7 12 -6 12 9 0 9 -8 16 -10 15
-5 -5 29 2 55 14 48 9 -6 9 -5 0 8 -7 8 -10 18 -6 21 3 4 -2 9 -11 13 -9 3
-16 12 -16 20 0 8 -4 14 -8 14 -13 0 -52 36 -46 42 3 3 -2 8 -11 12 -11 4 -14
2 -9 -6 4 -7 3 -8 -4 -4 -7 4 -12 14 -12 22 0 8 -6 13 -12 12 -7 -2 -12 3 -10
10 1 8 -2 11 -8 7 -14 -8 -71 36 -63 49 4 6 -2 4 -12 -4 -10 -8 -16 -10 -13
-5 6 9 -13 33 -29 38 -5 1 -7 5 -6 9 2 4 -6 5 -17 3 -12 -2 -18 0 -15 6 4 5
-1 12 -9 15 -9 3 -16 12 -16 19 0 7 -10 20 -22 29 -13 9 -17 14 -10 11 6 -3
12 -1 12 4 0 10 -14 15 -32 12 -4 0 -5 5 -2 13 3 8 0 17 -7 22 -8 4 -10 3 -5
-4 4 -7 2 -12 -3 -12 -6 0 -11 7 -11 15 0 8 -6 14 -12 13 -7 -2 -12 5 -12 14
1 11 -4 14 -14 11 -9 -4 -13 -2 -9 4 4 6 -4 23 -18 39 -13 15 -23 30 -22 33 1
3 -6 17 -15 31 -13 21 -17 57 -8 80 1 3 2 9 1 13 -1 5 3 6 8 3 5 -3 17 6 26
20 11 18 13 24 4 19 -8 -5 -5 1 6 12 11 11 25 18 30 15 6 -3 4 2 -4 11 -9 11
-10 17 -2 17 6 0 11 7 11 15 0 8 3 14 8 13 4 -2 8 1 9 6 0 5 8 13 17 18 9 5
16 14 16 19 0 6 7 17 15 26 8 8 12 19 9 25 -4 7 -2 8 4 4 6 -4 17 5 26 21 8
15 18 28 23 28 4 0 7 3 5 8 -1 4 3 7 9 7 5 0 7 5 4 10 -4 6 -1 9 7 8 7 -2 12
3 10 10 -1 6 5 12 15 12 9 0 14 3 11 6 -3 3 7 19 23 35 16 17 26 35 23 41 -4
6 -3 9 2 6 5 -3 17 3 27 14 9 10 14 18 10 18 -3 0 5 9 18 21 13 12 23 26 21
31 -2 6 5 8 14 4 12 -5 15 -2 10 10 -4 11 -2 15 8 11 10 -4 14 0 11 13 -3 14
1 18 15 15 14 -3 17 1 13 12 -4 11 -2 14 5 9 7 -4 12 -1 12 7 0 7 11 20 25 27
13 7 22 17 19 22 -3 4 4 8 16 8 12 0 19 4 15 10 -6 10 91 87 105 83 5 -2 7 6
5 17 -2 11 -1 19 3 19 4 -1 16 -1 27 0 17 1 18 3 5 11 -9 6 -10 10 -3 10 6 0
26 13 44 30 18 16 37 26 42 23 6 -3 8 -2 5 3 -3 5 3 17 14 27 10 9 18 14 18
10 0 -3 8 4 19 15 10 12 27 22 37 22 16 0 17 2 4 10 -12 8 -10 10 8 10 13 0
20 4 17 10 -5 9 16 15 38 11 5 -1 6 2 4 6 -3 5 1 14 9 21 8 7 14 10 14 7 0 -3
6 -1 13 5 46 39 61 50 69 50 5 0 6 5 2 12 -4 6 -3 8 4 4 6 -3 14 -1 18 5 4 8
9 7 15 -2 7 -11 9 -11 9 2 0 18 26 33 41 24 5 -4 6 2 2 11 -4 12 -3 15 5 10 7
-4 15 -1 18 8 3 9 12 12 21 9 12 -5 14 -3 8 7 -6 10 -4 12 8 7 10 -3 17 -2 17
3 0 5 9 12 20 15 12 4 17 11 14 18 -4 7 -4 9 1 5 4 -4 15 -2 23 5 13 10 14 9
8 -3 -4 -8 2 -4 14 10 12 14 18 18 14 10 -6 -12 -5 -13 8 -3 8 7 18 10 21 6 4
-3 7 1 7 10 0 10 5 14 15 11 8 -4 15 -1 15 6 0 6 4 8 10 5 5 -3 20 1 32 9 14
9 29 12 37 7 7 -5 23 -6 35 -3 11 3 18 2 14 -3 -9 -10 12 -30 40 -39 12 -4 22
-15 23 -24 0 -10 3 -12 6 -5 3 10 8 9 20 -2 8 -8 18 -13 23 -10 5 3 11 1 15
-4 3 -6 12 -8 20 -5 8 4 12 11 8 17 -4 6 -1 7 7 2 8 -5 20 1 32 16 11 13 17
17 13 9 -4 -10 -2 -9 8 2 8 10 17 15 20 11 4 -3 7 -1 7 6 0 7 5 9 10 6 6 -3
10 -1 10 6 0 7 3 9 7 6 3 -4 13 -1 21 6 13 10 14 9 7 -3 -8 -13 -6 -13 8 -1 9
7 24 11 32 7 9 -3 18 1 22 10 5 13 7 13 14 2 7 -10 9 -9 9 4 0 9 7 21 15 26
10 5 13 15 9 25 -3 9 -11 14 -18 10 -6 -4 -4 2 4 13 8 10 11 16 6 12 -5 -4
-15 -1 -22 7 -8 8 -22 11 -31 8 -10 -4 -14 -2 -10 4 4 6 0 14 -9 17 -8 3 -13
2 -10 -2 3 -5 -1 -9 -9 -9 -8 0 -12 4 -10 8 3 3 -5 9 -16 12 -12 3 -18 10 -14
17 5 8 11 8 21 -1 9 -7 14 -8 13 -3 -1 5 -1 15 0 23 1 11 4 11 18 0 11 -10 14
-10 9 -1 -4 7 -2 12 4 12 6 0 8 5 4 12 -4 7 -3 8 4 4 6 -4 21 -2 32 4 15 8 20
8 20 -1 0 -8 4 -8 15 1 9 7 15 8 15 2 0 -5 7 -13 16 -16 10 -4 13 -2 8 7 -5 7
-1 7 12 -2 32 -25 64 -60 64 -71 0 -5 6 -10 13 -11 9 0 9 -2 -1 -6 -6 -2 -9
-9 -6 -15 4 -6 8 -22 10 -37 6 -46 10 -62 18 -61 4 1 14 -7 22 -17 7 -10 14
-14 14 -10 0 5 7 1 16 -7 8 -9 20 -14 25 -11 5 4 9 1 9 -6 0 -7 7 -4 16 7 8
10 12 13 8 5 -5 -11 -2 -13 14 -9 13 4 22 1 23 -5 0 -7 4 -3 9 8 5 11 9 15 9
9 1 -7 8 -15 17 -18 8 -3 12 -2 9 4 -6 9 30 15 64 11 7 -2 11 2 7 7 -3 5 1 9
9 9 8 0 15 -3 15 -7 0 -4 7 -7 15 -7 8 0 12 4 9 9 -3 4 -1 8 5 8 5 0 13 -5 16
-10 5 -8 11 -7 21 1 11 9 14 8 14 -2 0 -11 2 -11 10 1 8 12 10 12 10 1 0 -11
3 -11 17 0 11 10 14 10 9 2 -5 -9 2 -13 24 -13 17 0 29 -4 26 -8 -3 -5 8 -8
25 -7 18 1 33 -4 39 -14 5 -9 10 -11 10 -5 0 6 7 11 15 12 8 1 22 3 30 4 8 1
12 5 9 10 -3 4 2 8 11 8 9 0 13 5 10 10 -3 6 3 10 15 10 12 0 18 5 15 10 -3 6
4 10 16 10 12 0 20 3 16 6 -9 9 21 36 33 29 7 -4 7 2 0 19 -5 14 -6 26 -2 26
4 0 -8 13 -26 29 -19 17 -41 28 -52 26 -13 -3 -17 1 -13 11 3 9 0 12 -9 9 -15
-6 -83 35 -80 48 2 4 -4 15 -13 23 -13 14 -13 17 0 30 21 21 19 29 -2 13 -10
-7 -7 0 7 16 14 17 27 32 29 35 2 3 1 -4 -2 -15 -7 -19 -6 -19 7 -2 7 9 25 17
40 17 18 0 25 4 20 12 -5 7 -3 8 7 2 8 -5 17 -9 22 -10z m-2688 -1694 c3 -5 1
-10 -4 -10 -6 0 -11 5 -11 10 0 6 2 10 4 10 3 0 8 -4 11 -10z m4516 -4001 c7
-11 120 -16 136 -6 6 4 14 3 18 -3 4 -6 11 -7 17 -4 7 4 8 2 4 -4 -5 -8 0 -12
13 -12 12 0 21 -5 21 -11 0 -5 4 -8 9 -5 5 3 14 -1 21 -9 7 -8 21 -15 32 -15
10 0 17 -4 13 -9 -3 -6 4 -8 15 -6 11 2 20 -1 20 -6 0 -6 5 -7 10 -4 6 3 10 1
10 -5 0 -7 7 -10 14 -7 10 4 13 1 9 -9 -3 -8 -2 -14 3 -12 13 4 74 -23 74 -32
0 -4 7 -11 16 -14 8 -3 12 -2 9 4 -3 6 -1 10 4 10 6 0 11 -5 11 -11 0 -6 7 -9
15 -5 8 3 15 1 15 -5 0 -6 5 -7 10 -4 6 4 8 10 6 14 -3 4 5 8 17 8 16 2 18 0
8 -6 -10 -7 -7 -9 12 -8 14 1 23 5 20 10 -2 4 -1 7 4 8 4 0 22 2 38 3 17 1 37
6 44 11 10 6 12 4 6 -5 -6 -10 -4 -12 8 -7 10 4 17 1 17 -6 0 -8 3 -8 9 2 6 9
11 10 15 3 4 -6 13 -9 22 -5 9 3 14 0 12 -8 -2 -8 3 -13 10 -12 6 2 12 -2 12
-9 0 -6 3 -9 6 -5 3 3 17 -5 31 -19 13 -13 29 -22 34 -19 5 4 9 -1 9 -10 0 -9
5 -13 10 -10 6 3 10 1 10 -4 0 -6 6 -11 14 -11 8 0 17 -7 20 -16 3 -8 10 -13
14 -10 5 3 15 -4 22 -15 8 -10 20 -19 27 -19 6 0 15 -9 18 -20 4 -11 11 -18
16 -15 5 4 9 -1 9 -9 0 -8 9 -17 19 -21 12 -4 18 -12 14 -21 -3 -7 0 -14 6
-14 6 0 18 -12 26 -27 10 -17 14 -20 11 -8 -5 18 -5 18 7 4 11 -15 61 -37 63
-28 0 2 8 -4 18 -13 15 -16 43 -23 69 -19 4 0 7 -4 7 -9 0 -6 10 -15 23 -20
12 -5 16 -9 8 -9 -11 -1 -11 -4 0 -18 12 -14 12 -16 0 -8 -11 6 -13 4 -8 -9 4
-10 3 -15 -3 -11 -6 3 -10 -3 -10 -14 0 -20 -32 -46 -43 -35 -3 3 -8 0 -13 -7
-5 -8 -3 -10 7 -4 12 8 12 6 0 -8 -7 -9 -20 -17 -28 -17 -10 0 -13 -6 -9 -16
3 -8 2 -13 -3 -9 -5 3 -16 -1 -24 -9 -8 -8 -18 -12 -22 -8 -5 4 -5 1 -1 -6 5
-9 1 -15 -14 -19 -16 -4 -18 -8 -8 -14 10 -7 9 -9 -4 -9 -10 0 -18 -5 -18 -11
0 -5 -5 -7 -12 -3 -8 5 -9 2 -5 -10 4 -10 3 -15 -3 -11 -6 3 -13 -1 -16 -9 -3
-9 -10 -16 -16 -16 -5 0 -6 6 -3 13 4 6 -3 0 -15 -16 -12 -15 -26 -25 -31 -22
-5 4 -6 -2 -2 -12 3 -10 3 -15 -1 -12 -4 4 -19 -4 -33 -17 -14 -13 -32 -24
-40 -24 -8 0 -11 -4 -8 -10 3 -5 -3 -10 -15 -10 -12 0 -19 -4 -16 -9 6 -9 -22
-26 -36 -23 -5 1 -8 -5 -8 -13 0 -8 -9 -15 -21 -15 -11 0 -17 -4 -14 -10 3 -5
-1 -10 -9 -10 -9 0 -16 -4 -16 -10 0 -5 -6 -10 -14 -10 -8 0 -24 -12 -36 -27
-12 -16 -19 -22 -15 -15 3 6 1 12 -4 12 -6 0 -11 -7 -11 -15 0 -8 -4 -16 -10
-16 -5 -1 -16 -2 -22 -3 -7 -1 -12 -7 -11 -13 1 -6 -4 -14 -12 -17 -8 -3 -15
0 -15 7 -1 7 -7 1 -15 -13 -8 -14 -14 -20 -15 -13 0 7 -12 1 -26 -12 -15 -14
-30 -22 -35 -19 -5 3 -9 1 -9 -3 0 -5 -18 -16 -40 -26 -22 -9 -40 -22 -40 -28
0 -5 -4 -7 -10 -4 -5 3 -10 1 -10 -5 0 -6 -4 -8 -10 -5 -5 3 -10 1 -10 -5 0
-7 -7 -9 -16 -6 -8 3 -12 2 -9 -4 3 -6 -3 -10 -15 -10 -11 0 -23 -7 -26 -15
-4 -8 -10 -12 -15 -9 -5 3 -9 -1 -9 -8 0 -10 -3 -9 -10 2 -8 12 -10 12 -16 -3
-3 -9 -10 -14 -15 -11 -5 3 -9 0 -9 -5 0 -6 -9 -11 -21 -11 -11 0 -17 -4 -14
-10 3 -6 -1 -7 -9 -4 -9 3 -16 1 -16 -6 0 -6 -4 -8 -10 -5 -5 3 -10 1 -10 -5
0 -6 -4 -8 -10 -5 -5 3 -10 1 -10 -5 0 -6 -4 -8 -10 -5 -5 3 -10 1 -10 -6 0
-6 -8 -9 -20 -6 -11 3 -18 2 -16 -2 3 -4 -4 -13 -16 -20 -11 -7 -18 -8 -14 -3
3 5 -1 9 -9 9 -8 0 -13 -5 -12 -11 1 -5 -12 -10 -30 -9 -18 0 -31 -4 -30 -11
1 -6 -6 -10 -17 -8 -12 2 -16 -1 -10 -9 5 -9 2 -10 -9 -6 -9 3 -23 -1 -32 -9
-9 -9 -15 -11 -15 -4 0 7 -7 5 -16 -4 -8 -9 -20 -14 -25 -11 -5 4 -9 1 -9 -6
0 -7 -3 -9 -7 -6 -3 4 -12 2 -20 -4 -9 -9 -13 -8 -13 0 0 6 -5 11 -11 11 -5 0
-7 -4 -4 -10 6 -9 -10 -14 -42 -13 -7 1 -10 -4 -6 -10 4 -6 0 -8 -10 -4 -10 3
-17 2 -17 -3 0 -5 -6 -7 -14 -4 -8 3 -17 1 -21 -5 -3 -6 -20 -11 -36 -11 -17
0 -28 -4 -25 -9 3 -5 0 -9 -7 -8 -43 1 -67 -4 -61 -14 5 -8 1 -8 -14 0 -14 7
-23 8 -27 1 -3 -5 -17 -10 -31 -10 -13 0 -24 -6 -25 -12 0 -9 -2 -9 -6 1 -5
11 -7 11 -14 0 -7 -12 -9 -11 -9 1 0 11 -2 12 -8 2 -12 -18 -112 -19 -123 -1
-7 12 -9 11 -9 -1 0 -11 -3 -10 -12 4 -13 22 -17 106 -5 106 4 0 6 4 2 9 -3 5
-1 12 5 16 6 4 8 11 5 16 -4 5 2 9 12 9 14 0 15 2 4 9 -9 6 -10 11 -2 15 6 4
9 11 6 16 -3 5 -1 11 4 14 5 4 8 18 5 32 -3 19 -1 24 8 18 8 -5 8 -1 -2 10 -8
10 -15 24 -15 30 -1 13 -13 44 -26 68 -5 11 -5 19 2 24 8 4 7 9 -2 15 -11 7
-11 9 1 9 13 0 13 1 0 10 -9 6 -10 10 -3 10 6 0 10 9 8 20 -2 11 1 20 7 20 6
0 5 7 -3 17 -8 9 -9 14 -4 11 6 -3 15 0 22 7 10 11 10 15 0 18 -7 3 -5 6 5 6
12 1 15 6 11 18 -4 11 -3 14 5 9 11 -6 16 5 13 26 0 4 5 5 13 2 8 -3 16 4 19
16 4 14 10 19 18 14 8 -4 10 -3 5 5 -4 6 0 14 8 17 9 3 16 12 16 20 0 8 6 11
15 7 9 -3 15 -2 14 3 -4 17 13 44 24 37 5 -3 7 -1 3 5 -3 6 0 16 7 24 8 7 13
22 11 31 -1 12 2 17 10 14 7 -3 13 1 13 9 0 7 -4 11 -8 9 -4 -3 -5 14 -2 37 4
29 3 39 -5 34 -19 -11 -14 5 6 20 11 9 12 13 4 14 -10 0 -10 5 -1 21 8 15 8
19 0 15 -15 -10 -14 7 2 23 7 9 7 11 1 8 -7 -4 -14 0 -17 8 -4 9 -1 12 9 8 11
-4 13 0 6 18 -5 13 -7 30 -4 38 3 10 0 11 -9 5 -11 -6 -10 -3 1 11 9 11 10 16
3 11 -9 -5 -13 0 -13 14 0 14 4 19 13 14 9 -6 8 -3 -1 8 -8 9 -12 25 -10 36 2
10 -3 26 -11 35 -10 13 -11 20 -2 31 9 11 9 16 0 21 -8 6 -7 10 2 16 12 7 12
9 0 9 -11 0 -11 3 -1 15 10 12 10 15 -1 16 -10 0 -11 2 -1 6 6 2 10 9 6 14 -3
5 2 12 10 15 9 3 14 10 11 14 -3 5 3 7 12 6 10 -2 24 4 31 13 8 9 11 10 7 4
-12 -24 5 -15 50 25 9 8 13 18 10 23 -4 5 2 6 11 2 11 -4 15 -3 10 5 -3 6 4
20 16 31 12 12 18 21 14 21 -4 0 6 11 22 25 17 14 35 25 42 25 6 0 8 5 5 10
-3 6 3 10 13 10 11 0 22 7 26 15 3 8 11 14 18 13 7 -2 12 3 11 10 -2 6 0 11 5
11 19 -3 45 2 39 8 -4 3 3 12 16 18 25 15 119 17 128 4z"/>
<path d="M5665 4560 c-3 -5 -1 -10 4 -10 6 0 11 5 11 10 0 6 -2 10 -4 10 -3 0
-8 -4 -11 -10z"/>
<path d="M3286 4462 c-3 -5 1 -9 9 -9 8 0 12 4 9 9 -3 4 -7 8 -9 8 -2 0 -6 -4
-9 -8z"/>
</g>
</svg>
